<svg version="1.1" xmlns="http://www.w3.org/2000/svg" style="display: block;" viewBox="0 0 2048 1981" width="736" height="712" preserveAspectRatio="none">
<path transform="translate(0,0)" fill="rgb(0,0,0)" d="M 0 0 L 2048 0 L 2048 1981 L 0 1981 L 0 0 z"/>
<path transform="translate(0,0)" fill="rgb(254,254,254)" d="M 1811.86 209.859 L 1812.69 211.092 C 1810.93 215.795 1802.81 225.077 1799.49 229.705 C 1765.26 277.307 1731.05 324.273 1699.03 373.174 C 1617.89 497.107 1582.83 601.633 1598.85 750.66 C 1605.09 808.662 1619.41 854.495 1627.39 908.749 C 1651.84 1067.78 1612.25 1230.02 1517.3 1359.92 C 1419.1 1493.87 1271.07 1582.6 1106.64 1606.07 C 1077.78 1610.27 1053.05 1611.13 1024.13 1611.14 C 920.435 1612.1 818.199 1586.65 727.051 1537.19 C 707.065 1526.5 681.083 1511.33 662.986 1497.86 C 678.163 1489.73 695.69 1482.09 711.517 1474.79 L 785.302 1440.89 C 802.552 1433.02 830.775 1418.23 847.675 1412.77 C 862.343 1416.59 877.368 1423.11 892.309 1427.31 C 1060.74 1474.69 1222.05 1431.61 1344.77 1308.5 C 1390.1 1263.44 1426.53 1200.42 1446.37 1139.99 C 1474.01 1055.86 1476.01 965.424 1452.1 880.167 C 1444.37 852.283 1434.58 810.42 1403.75 801.28 C 1391.2 797.462 1377.67 798.509 1365.86 804.213 C 1355.28 809.309 1332.67 826.789 1322.48 834.309 L 1251.48 886.6 L 940.942 1114.33 L 860.809 1173.47 C 849.445 1181.83 826.269 1199.69 814.376 1205.71 L 813.192 1206.31 C 825.05 1193.89 842.281 1178.84 855.419 1165.59 C 914.065 1106.16 973.083 1047.1 1032.47 988.416 L 1568.16 452.431 C 1625.22 396.447 1681.9 340.072 1738.19 283.309 C 1762.31 259.207 1788.66 234.394 1811.86 209.859 z"/>
<path transform="translate(0,0)" fill="rgb(254,254,254)" d="M 990.988 387.401 C 1118.24 380.876 1275.4 422.169 1376.69 500.97 C 1368.12 505.612 1354.47 511.237 1345.11 515.541 L 1284.81 543.47 C 1258.78 555.429 1218 575.882 1192.12 585.659 C 1132.06 563.516 1090.56 554.131 1026.02 553.523 C 905.841 552.392 788.315 596.313 701.85 682.901 C 615.629 768.671 566.902 885.107 566.333 1006.72 C 566.365 1127.29 611.519 1224.33 696.201 1308.68 C 688.046 1317.03 676.169 1326.95 667.181 1335.07 C 647.544 1352.87 627.782 1370.54 607.896 1388.07 L 433.654 1542.98 C 416.62 1559.77 387.582 1583.57 368.689 1600.45 L 242.497 1712.88 C 221.03 1731.96 198.642 1751.13 177.626 1770.54 C 190.803 1742.1 261.114 1672.49 285.783 1646.29 C 383.285 1542.72 507.389 1423.91 461.732 1266.18 C 454.684 1241.84 444.337 1219.28 436.235 1195.41 C 420.228 1147.6 410.239 1097.99 406.5 1047.71 C 383.655 754.594 575.546 481.084 861.319 407.605 C 906.178 396.07 944.824 390.984 990.988 387.401 z"/>
</svg>