<svg version="1.1" xmlns="http://www.w3.org/2000/svg" style="display: block;" viewBox="0 0 2008 2048" width="1059" height="1080" preserveAspectRatio="none">
<defs>
	<linearGradient id="Gradient1" gradientUnits="userSpaceOnUse" x1="922.622" y1="1062.65" x2="973.55" y2="426.163">
		<stop class="stop0" offset="0" stop-opacity="1" stop-color="rgb(199,198,199)"/>
		<stop class="stop1" offset="1" stop-opacity="1" stop-color="rgb(255,255,255)"/>
	</linearGradient>
</defs>
<path transform="translate(0,0)" fill="rgb(0,0,0)" d="M 0 0 L 2008 0 L 2008 2048 L 0 2048 L 0 0 z"/>
<path transform="translate(0,0)" fill="rgb(252,252,252)" d="M 1161.58 707.916 C 1180.93 706.641 1217.37 707.895 1238.34 707.878 L 1396.92 707.741 C 1372.16 736.925 1345.3 773.046 1321.47 803.642 C 1286.71 802.386 1250.07 803.996 1215.18 803.364 C 1201.09 803.109 1185.49 803.916 1171.55 802.984 C 1160.44 808.803 1143.16 820.056 1131.97 826.88 C 1107.28 842.056 1082.46 857.001 1057.5 871.714 C 1058.81 896.612 1057.85 930.576 1057.87 956.043 C 1095.41 934.685 1132.78 909.697 1170.41 888.371 C 1185.4 889.259 1203.34 888.432 1218.6 888.672 C 1257.88 889.289 1297.97 887.855 1337.15 888.523 C 1312.09 920.328 1286.84 951.981 1261.39 983.481 C 1255.27 984.249 1237.4 983.795 1230.36 983.797 L 1169.94 983.701 L 1057.11 1051.56 C 1058.21 1070.56 1057.82 1091.77 1057.82 1110.9 L 1057.89 1202.8 C 1048.52 1207.96 1035.28 1217 1026.03 1222.93 L 961.299 1264.63 C 960.46 1214.79 961.235 1162.93 961.272 1112.94 L 961.249 818.706 C 1027.53 781.137 1095.21 745.874 1161.58 707.916 z"/>
<path transform="translate(0,0)" fill="url(#Gradient1)" d="M 1009.54 426.958 C 1035.37 444.2 1066.2 462.084 1092.9 478.714 L 1269.64 589.093 C 1236.96 606.38 1201.87 623.695 1169.79 641.423 L 1009.42 543.468 C 948.377 582.41 884.963 620.859 823.343 659.132 L 773.334 690.124 C 765.749 694.833 751.754 703.036 745.327 708.363 L 745.25 905.405 L 745.152 956.606 C 745.131 962.859 744.659 979.12 745.709 984.705 C 735.46 990.748 720.87 999.654 711.23 1005.81 C 704.117 1010.34 657.475 1043.35 653.823 1043.68 C 656.494 1046.12 658.239 1047.42 660.15 1050.54 L 650.234 1044.5 C 648.696 944.866 651.645 844.51 650.513 744.811 C 650.157 713.489 651.362 681.578 650.397 650.349 C 659.24 644.135 674.205 635.497 683.749 629.627 L 749.132 589.247 C 835.11 535.573 924.51 481.495 1009.54 426.958 z"/>
<path transform="translate(0,0)" fill="rgb(252,252,252)" d="M 745.709 984.705 C 753.418 988.212 766.126 996.57 773.687 1001.23 L 820.406 1029.97 C 856.291 1051.95 904.465 1079.26 938.239 1102.48 L 938.09 1222.48 C 869.919 1179.61 801.499 1137.13 732.833 1095.05 C 709.237 1080.64 683.85 1064.19 660.15 1050.54 C 658.239 1047.42 656.494 1046.12 653.823 1043.68 C 657.475 1043.35 704.117 1010.34 711.23 1005.81 C 720.87 999.654 735.46 990.748 745.709 984.705 z"/>
<path transform="translate(0,0)" fill="rgb(252,252,252)" d="M 506.982 1377.32 C 522.608 1376.95 575.575 1373.95 587.06 1381.91 C 593.907 1386.65 599.485 1394.19 600.684 1402.53 C 601.784 1410.19 601.657 1462.69 600.477 1469.77 C 599.572 1475.2 597.698 1480.4 594.336 1484.8 C 589.182 1491.54 582.166 1494.6 573.959 1495.63 C 557.847 1495.59 507.799 1499.33 495.845 1492.28 C 489.425 1488.5 484.019 1482.14 482.481 1474.74 C 479.875 1462.2 480.329 1415.44 482.187 1402.2 C 482.782 1397.96 483.713 1394.01 486.116 1390.41 C 490.935 1383.18 498.691 1379.12 506.982 1377.32 z"/>
<path transform="translate(0,0)" fill="rgb(0,0,0)" d="M 505.386 1398.04 C 517.576 1397.58 570.137 1395.08 578.046 1400.78 C 580.385 1402.46 580.554 1407.56 580.707 1410.21 C 581.219 1419.1 580.306 1428.17 580.312 1437.09 C 580.318 1447.36 582.015 1458.48 579.985 1468.59 C 579.492 1471.05 578.209 1472.5 576.585 1474.32 C 569.464 1475.82 512.926 1476.09 506.276 1474.19 C 503.869 1471.71 501.893 1466.82 502.015 1463.53 C 502.525 1449.71 497.958 1407.76 505.386 1398.04 z"/>
<path transform="translate(0,0)" fill="rgb(252,252,252)" d="M 1036.24 1377.26 C 1056.57 1377.15 1076.95 1377 1097.27 1377.03 C 1108.3 1377.05 1118.34 1377.58 1126.31 1386.13 C 1130.47 1390.68 1133.38 1396.25 1134.74 1402.27 C 1136.69 1410.78 1136.01 1427.86 1135.96 1437.06 C 1135.95 1456.53 1135.7 1476.01 1135.2 1495.47 C 1119.89 1496.21 1101.68 1495.6 1086.21 1495.59 C 1071.28 1495.57 1041.2 1498.27 1028.92 1492.21 C 1008.59 1476.73 1014.53 1449.87 1014.93 1426.28 C 1047.96 1425.78 1081.75 1426.14 1114.83 1426.15 C 1114.94 1421.3 1116.61 1404.18 1112.83 1400.84 C 1106.75 1395.45 1034.77 1397.86 1021.85 1397.9 L 1036.24 1377.26 z"/>
<path transform="translate(0,0)" fill="rgb(0,0,0)" d="M 1035.34 1446.14 L 1114.93 1446.2 L 1114.8 1475.12 C 1101.16 1475.19 1047.36 1477.29 1037.84 1472.52 C 1034.09 1468.13 1035.29 1452.64 1035.34 1446.14 z"/>
<path transform="translate(0,0)" fill="rgb(252,252,252)" d="M 1672.07 1377.2 C 1693.31 1377.11 1719.15 1376.04 1739.98 1377.53 C 1773.65 1379.94 1767.04 1421.28 1766.69 1446.21 C 1734.21 1446.6 1701.03 1445.54 1668.77 1446.53 L 1668.66 1450.89 C 1667.79 1486.28 1683.72 1475.02 1714.5 1475.17 L 1766.86 1475.14 L 1766.72 1495.14 C 1750.87 1496.06 1674.21 1497.58 1664.66 1493.3 C 1658.47 1490.52 1651.97 1483.83 1649.89 1477.3 C 1646.16 1465.53 1645.62 1403.36 1651.22 1392.89 C 1655.6 1384.71 1663.46 1379.92 1672.07 1377.2 z"/>
<path transform="translate(0,0)" fill="rgb(0,0,0)" d="M 1672.57 1398.09 C 1693.95 1396.99 1716.48 1397.97 1737.92 1398.04 C 1749.05 1398.07 1746.85 1417.49 1745.67 1424.98 L 1744.03 1426.11 L 1668.78 1426.27 L 1668.69 1423.72 C 1668.36 1414.53 1666.5 1404.59 1672.57 1398.09 z"/>
<path transform="translate(0,0)" fill="rgb(252,252,252)" d="M 850.736 1377.4 C 851.529 1377.37 852.323 1377.34 853.117 1377.31 C 869.564 1376.85 887.079 1377.6 903.332 1376.97 C 951.678 1375.09 943.321 1411.35 942.936 1446.32 C 911.736 1447.26 877.307 1446.22 845.635 1446.48 C 845.58 1453.74 843.409 1476.21 855.726 1475.86 C 868.089 1475.52 880.087 1475.11 892.53 1475.18 L 942.698 1475.17 L 942.742 1495.39 C 912.847 1496.55 881.881 1495.46 851.988 1495.6 C 841.986 1496.41 827.402 1485.1 826.374 1474.9 C 824.001 1451.36 824.366 1424.09 825.998 1400.48 C 826.791 1389.01 840.001 1379.57 850.736 1377.4 z"/>
<path transform="translate(0,0)" fill="rgb(0,0,0)" d="M 849.747 1398.12 C 871.052 1396.51 895.579 1398.23 917.063 1398.18 C 925.678 1398.16 924.083 1420.32 922.833 1425.33 L 921.145 1426.13 L 845.693 1426.26 C 845.446 1416.4 843.594 1405.4 849.747 1398.12 z"/>
<path transform="translate(0,0)" fill="rgb(252,252,252)" d="M 319.584 1377.39 C 351.37 1376.99 383.159 1377.01 414.944 1377.47 L 414.998 1397.81 C 402.262 1397.88 327.492 1397.05 320.213 1398.73 C 314.639 1404.29 314.594 1466.95 318.223 1472.63 C 325.272 1476.96 350.96 1475.31 360.5 1475.19 L 414.98 1475.2 L 414.943 1495.48 C 398.808 1496.42 322.675 1497.6 312.806 1493.7 C 306.461 1491.19 300.006 1484.62 297.659 1478.22 C 294.064 1468.42 293.911 1401.89 298.677 1393.01 C 302.953 1385.03 311.027 1379.71 319.584 1377.39 z"/>
<path transform="translate(0,0)" fill="rgb(252,252,252)" d="M 1336.57 1377.2 C 1343.5 1377.08 1349.29 1377.31 1356.23 1377.68 C 1356.63 1393.17 1353.62 1462.2 1358.5 1471.09 C 1360.01 1473.85 1361.95 1474.27 1364.87 1474.88 C 1370.39 1476.02 1416.25 1475.94 1423.37 1475.24 C 1425.8 1475 1430.13 1474.5 1431.89 1472.63 C 1437.07 1467.14 1434.73 1389.1 1434.7 1377.25 C 1441.57 1377.07 1448.07 1377.31 1454.94 1377.53 L 1455.13 1400.25 C 1455.28 1424.02 1456.21 1448.69 1454.4 1472.26 C 1453.74 1480.9 1443.88 1492.74 1435.09 1494.35 C 1417.52 1497.58 1399.14 1494.69 1381.16 1495.87 C 1369.56 1496.64 1353.22 1497.18 1344.99 1487.58 C 1342.46 1484.6 1337.7 1478.95 1337.43 1474.95 C 1335.46 1445.02 1336.23 1406.9 1336.57 1377.2 z"/>
<path transform="translate(0,0)" fill="rgb(252,252,252)" d="M 722.539 1333.97 C 738.447 1333.47 757.109 1334.03 773.227 1334.1 C 768.388 1340.48 763.489 1348.05 758.951 1354.75 C 751.994 1354.83 744.586 1354.73 737.653 1354.32 C 717.721 1353.16 716.534 1359.96 716.908 1377.12 C 733.663 1377.57 751.885 1377.24 768.756 1377.27 C 764.468 1384.05 759.098 1391.4 754.473 1398.04 C 741.964 1397.98 729.455 1398.12 716.95 1398.45 L 717.033 1452.5 L 717.067 1483.41 C 709.185 1488.2 702.732 1492.93 694.356 1497.74 C 693.747 1465.42 694.938 1430.92 694.621 1398.08 L 661.932 1398.17 C 666.251 1390.9 670.833 1384.11 675.518 1377.09 L 694.793 1377.15 L 694.417 1352.75 C 703.427 1346.46 713.348 1340.1 722.539 1333.97 z"/>
<path transform="translate(0,0)" fill="rgb(252,252,252)" d="M 1213.17 1335.09 L 1233.75 1335.08 C 1233.67 1349.12 1233.69 1363.15 1233.8 1377.19 L 1272.22 1377.34 L 1272.23 1397.77 L 1233.92 1397.86 C 1233.66 1410.9 1231.9 1458.8 1235.78 1471.97 C 1237.47 1477.71 1261.62 1474.3 1271.03 1475.45 L 1272.36 1476.93 L 1272.22 1495.48 C 1267.66 1495.61 1263.09 1495.72 1258.53 1495.81 C 1241.21 1496.13 1216.61 1495.68 1214.26 1471.93 C 1211.92 1448.35 1213.11 1421.83 1213.18 1397.89 L 1193.28 1397.96 L 1193.21 1377.31 L 1213.05 1377.23 L 1213.17 1335.09 z"/>
<path transform="translate(0,0)" fill="rgb(252,252,252)" d="M 1541.96 1377.35 C 1559.96 1376.66 1584.1 1376.94 1602.12 1377.51 L 1602.09 1397.71 C 1593.32 1397.88 1546.15 1395.51 1541.07 1400.15 C 1535.01 1405.69 1537.56 1446.09 1537.59 1456.5 C 1537.62 1469.54 1537.58 1482.59 1537.47 1495.63 C 1530.87 1495.88 1523.81 1495.87 1517.17 1495.99 C 1517.16 1477.93 1513.97 1405.6 1520.42 1393.29 C 1524.83 1384.87 1533.18 1380.07 1541.96 1377.35 z"/>
</svg>