<?xml version="1.0" standalone="no"?>
<!DOCTYPE svg PUBLIC "-//W3C//DTD SVG 20010904//EN"
 "http://www.w3.org/TR/2001/REC-SVG-20010904/DTD/svg10.dtd">
<svg version="1.0" xmlns="http://www.w3.org/2000/svg"
 width="1800.000000pt" height="1800.000000pt" viewBox="0 0 1800.000000 1800.000000"
 preserveAspectRatio="xMidYMid meet">
<g transform="translate(0.000000,1800.000000) scale(0.100000,-0.100000)"
fill="#ffffff" stroke="none">
<path d="M8675 16633 c-366 -23 -526 -37 -660 -58 -289 -44 -310 -47 -320 -56
-5 -5 -32 -9 -60 -9 -27 -1 -68 -7 -90 -15 -22 -8 -61 -15 -86 -15 -26 0 -66
-7 -89 -15 -23 -8 -53 -15 -65 -15 -13 0 -25 -7 -29 -15 -4 -11 -18 -15 -48
-14 -24 1 -68 -6 -98 -15 -30 -9 -80 -23 -110 -31 -30 -7 -80 -20 -110 -29
-30 -8 -66 -19 -80 -22 -14 -4 -29 -13 -33 -21 -4 -7 -23 -13 -42 -13 -19 0
-37 -4 -40 -10 -3 -5 -20 -10 -36 -10 -17 0 -47 -9 -67 -19 -20 -11 -59 -24
-87 -31 -27 -6 -63 -18 -80 -27 -16 -8 -61 -26 -100 -39 -105 -35 -154 -53
-201 -75 -24 -10 -46 -19 -49 -19 -4 0 -18 -9 -32 -20 -14 -11 -40 -20 -58
-20 -18 0 -38 -7 -45 -15 -7 -8 -20 -15 -30 -15 -10 0 -20 -7 -23 -15 -7 -16
-69 -45 -98 -45 -11 0 -19 -6 -19 -14 0 -16 -24 -28 -43 -20 -8 3 -41 -10 -74
-29 -32 -19 -85 -46 -116 -60 -31 -14 -71 -37 -89 -50 -18 -14 -44 -27 -58
-29 -14 -2 -25 -10 -25 -18 0 -10 -10 -15 -30 -15 -17 -1 -50 -14 -75 -31 -25
-17 -67 -43 -95 -59 -27 -15 -54 -34 -58 -42 -4 -7 -14 -13 -21 -13 -8 0 -19
-7 -26 -15 -7 -8 -19 -15 -26 -15 -8 0 -39 -17 -70 -37 -31 -21 -67 -44 -80
-51 -13 -7 -32 -24 -42 -37 -11 -14 -28 -25 -37 -25 -10 0 -33 -16 -51 -35
-18 -19 -47 -38 -63 -41 -17 -4 -31 -13 -31 -20 0 -7 -15 -21 -32 -30 -55 -27
-188 -118 -188 -129 -1 -21 -49 -57 -69 -50 -12 4 -24 -1 -33 -13 -7 -10 -57
-55 -110 -101 -54 -45 -98 -87 -98 -92 0 -5 -6 -9 -13 -9 -8 0 -33 -18 -57
-40 -24 -22 -47 -40 -52 -40 -4 0 -8 -7 -8 -15 0 -8 -13 -23 -28 -33 -87 -54
-169 -131 -164 -155 3 -12 -5 -19 -28 -23 -18 -4 -38 -18 -48 -33 -9 -14 -28
-35 -41 -46 -13 -11 -43 -38 -65 -61 -23 -22 -50 -43 -60 -47 -14 -6 -16 -10
-7 -21 8 -10 8 -16 -2 -25 -8 -6 -17 -8 -20 -4 -8 7 -117 -104 -117 -120 -1
-19 -47 -67 -65 -67 -8 0 -15 -9 -15 -20 0 -11 -11 -25 -25 -32 -24 -13 -128
-130 -152 -171 -6 -11 -19 -24 -27 -29 -9 -5 -16 -15 -16 -23 0 -8 -6 -18 -14
-22 -21 -12 -104 -122 -128 -170 -12 -24 -30 -45 -39 -48 -10 -4 -28 -24 -41
-46 -12 -21 -25 -39 -28 -39 -8 0 -100 -136 -100 -147 0 -5 -8 -13 -19 -20
-10 -6 -22 -28 -25 -47 -4 -20 -15 -40 -26 -46 -11 -6 -23 -22 -26 -36 -3 -13
-15 -29 -25 -35 -11 -5 -19 -18 -19 -29 0 -11 -8 -24 -18 -29 -10 -5 -38 -47
-63 -92 -24 -46 -52 -91 -63 -100 -13 -13 -17 -25 -12 -44 6 -23 4 -26 -16
-23 -19 2 -23 -2 -24 -23 0 -14 -5 -32 -12 -40 -41 -48 -70 -92 -86 -130 -26
-63 -41 -94 -91 -184 -24 -44 -44 -90 -44 -101 -1 -12 -8 -24 -16 -28 -8 -3
-15 -11 -15 -18 0 -7 -20 -53 -44 -103 -67 -139 -126 -281 -126 -307 0 -13
-14 -48 -31 -78 -29 -53 -97 -237 -161 -440 -17 -52 -37 -110 -44 -129 -8 -18
-12 -42 -9 -53 4 -10 0 -30 -9 -43 -9 -13 -16 -33 -16 -44 0 -10 -7 -32 -15
-47 -8 -16 -15 -45 -15 -64 0 -20 -4 -40 -9 -45 -19 -20 -84 -331 -131 -635
-7 -41 -16 -85 -21 -98 -5 -13 -9 -38 -9 -56 0 -18 -4 -46 -10 -62 -5 -16 -12
-63 -14 -104 -2 -41 -9 -109 -16 -150 -7 -41 -10 -102 -7 -136 2 -34 1 -68 -4
-76 -14 -26 -22 -241 -21 -619 0 -312 2 -360 17 -388 13 -26 14 -39 5 -65 -10
-32 -2 -164 20 -331 6 -38 14 -108 19 -155 5 -47 16 -119 25 -160 8 -41 27
-140 40 -220 34 -195 52 -284 71 -350 9 -30 20 -73 25 -95 10 -48 38 -133 51
-158 5 -9 12 -39 16 -65 3 -26 12 -59 19 -74 8 -15 14 -36 14 -48 0 -12 21
-80 46 -153 25 -73 53 -154 61 -182 9 -27 21 -63 29 -80 7 -16 27 -66 44 -110
17 -44 40 -97 51 -117 10 -20 19 -43 19 -51 0 -16 52 -134 106 -242 19 -38 34
-75 34 -81 0 -6 7 -17 15 -24 8 -7 15 -20 15 -29 0 -24 37 -94 55 -104 8 -4
15 -17 15 -28 0 -25 88 -202 106 -212 8 -4 14 -14 14 -21 0 -8 7 -16 15 -20 8
-3 15 -12 15 -21 0 -34 139 -279 204 -358 21 -26 36 -53 33 -61 -3 -8 2 -16
14 -19 10 -3 19 -14 19 -25 0 -10 9 -27 20 -37 11 -10 20 -24 20 -32 0 -8 14
-28 30 -45 17 -16 30 -35 30 -42 0 -7 9 -21 20 -31 11 -10 20 -23 20 -29 1
-16 42 -61 64 -69 12 -5 15 -13 11 -27 -4 -13 -1 -22 8 -26 8 -3 31 -31 52
-62 21 -31 52 -77 68 -102 17 -25 59 -77 94 -116 35 -40 63 -75 63 -78 0 -3
23 -29 50 -58 28 -29 50 -56 50 -60 0 -4 36 -47 80 -95 44 -49 80 -93 80 -99
0 -6 16 -18 35 -27 19 -9 35 -23 35 -31 0 -9 12 -29 27 -45 16 -16 37 -41 48
-55 11 -15 30 -31 43 -36 12 -5 26 -20 31 -33 11 -28 80 -92 110 -102 12 -3
21 -11 21 -17 0 -14 224 -238 238 -238 6 0 16 -9 22 -20 6 -11 17 -20 25 -20
8 0 20 -9 27 -21 11 -17 61 -60 208 -179 14 -11 41 -33 60 -50 104 -91 169
-140 184 -140 9 0 20 -8 23 -18 9 -23 44 -51 65 -52 10 0 22 -9 28 -20 6 -11
20 -20 30 -20 11 0 20 -7 20 -15 0 -8 13 -21 28 -29 16 -8 34 -21 41 -29 6 -8
21 -13 31 -10 16 4 20 0 20 -20 0 -19 9 -29 38 -42 55 -24 95 -47 110 -62 7
-7 20 -13 28 -13 8 0 14 -4 14 -10 0 -5 21 -21 48 -36 152 -86 190 -109 214
-131 14 -14 31 -22 37 -18 17 10 51 -4 45 -19 -5 -12 35 -36 60 -36 8 0 16 -7
20 -15 3 -8 13 -15 22 -15 9 0 29 -11 46 -25 16 -14 36 -25 44 -25 17 0 101
-46 122 -67 7 -7 19 -9 28 -6 9 3 21 -3 31 -16 8 -12 21 -20 28 -18 6 3 19 -3
28 -14 10 -11 23 -16 32 -13 10 4 24 -2 36 -15 30 -32 281 -146 362 -164 26
-6 47 -15 47 -19 0 -4 10 -8 22 -8 12 0 29 -6 37 -13 21 -18 115 -57 137 -57
10 0 25 -6 33 -14 18 -15 168 -66 195 -66 9 0 39 -11 66 -25 27 -14 58 -25 68
-25 11 0 37 -7 58 -16 20 -9 54 -17 74 -18 20 -2 47 -10 60 -19 14 -9 43 -20
65 -26 22 -5 94 -24 160 -41 66 -17 145 -35 175 -40 30 -6 89 -16 130 -25 41
-8 130 -23 197 -34 67 -11 127 -22 133 -26 14 -9 205 -26 273 -26 27 1 56 -3
66 -8 9 -5 66 -12 125 -16 59 -3 129 -10 154 -14 81 -15 463 -19 767 -8 257 9
471 30 526 52 9 3 56 8 105 10 49 2 114 8 144 14 30 6 87 15 125 20 39 5 104
16 145 25 41 9 100 21 130 27 99 19 195 41 218 50 13 5 32 9 42 9 12 0 20 7
20 16 0 12 6 15 23 10 12 -3 49 3 82 13 116 36 172 51 193 51 12 0 50 13 85
30 34 16 87 34 117 41 65 14 180 58 198 76 7 7 24 13 37 13 13 0 37 5 52 11
45 18 117 50 135 60 10 5 27 9 38 9 14 0 18 5 13 17 -5 13 -2 15 12 10 27 -11
284 98 350 149 17 13 37 24 44 24 7 0 28 12 46 26 22 17 41 24 54 19 12 -3 23
0 28 8 7 12 49 36 133 76 40 19 81 44 140 83 30 20 71 43 90 52 63 30 114 57
150 80 19 13 69 45 110 72 41 26 81 54 88 61 7 7 19 13 25 13 15 1 58 36 56
47 -3 20 2 25 16 13 18 -15 35 -5 35 21 0 16 5 19 20 14 13 -4 22 -1 26 9 3 9
11 16 18 16 10 0 60 38 134 100 13 11 30 20 38 20 8 0 19 11 24 25 5 14 17 25
27 25 10 0 44 22 75 48 32 26 81 65 109 87 28 22 89 73 135 112 47 40 96 80
109 89 14 9 25 23 25 30 0 8 11 19 25 24 14 5 29 20 34 34 5 13 20 26 33 30
28 7 104 78 112 104 4 10 22 26 41 35 22 10 35 24 35 35 0 21 30 52 50 52 16
0 130 114 130 129 0 7 7 14 15 17 8 4 15 12 15 20 0 8 6 14 14 14 8 0 16 7 20
15 3 8 12 15 21 15 8 0 15 4 15 9 0 6 24 34 53 63 81 84 147 165 147 182 0 9
6 16 13 16 18 0 156 156 163 185 3 14 13 25 20 25 8 0 20 11 26 25 6 14 14 25
18 25 9 0 140 178 140 190 0 5 9 12 20 15 11 3 20 15 20 25 0 11 6 23 13 27
15 10 94 123 104 149 4 11 27 45 52 76 58 71 107 149 103 165 -1 6 11 26 28
45 17 18 43 53 58 78 14 25 34 56 45 70 10 14 25 39 33 55 8 17 25 48 39 70
13 22 24 51 24 65 1 14 15 38 32 55 31 30 159 279 159 308 0 9 9 22 20 29 12
8 20 24 20 40 0 16 5 28 11 28 12 0 70 122 136 285 24 61 48 119 53 130 5 11
19 45 30 75 12 30 27 65 32 77 6 11 7 26 3 32 -4 7 4 26 18 44 13 18 32 59 42
92 30 101 75 237 94 290 11 28 24 75 31 105 6 30 15 64 20 75 4 11 13 47 19
80 7 33 18 76 26 95 11 31 37 134 65 270 6 25 24 119 40 210 17 91 38 199 46
240 21 110 46 348 49 479 2 63 9 144 15 180 23 138 16 898 -11 1161 -5 52 -14
143 -18 202 -5 59 -16 140 -24 180 -9 40 -21 105 -27 143 -18 111 -80 415 -97
475 -8 30 -18 74 -22 97 -4 23 -13 48 -19 56 -7 8 -16 40 -21 73 -5 32 -17 84
-26 114 -9 30 -18 65 -18 77 -1 12 -5 25 -9 29 -5 4 -8 18 -8 31 0 13 -9 41
-20 63 -11 22 -20 49 -20 61 0 21 -96 295 -110 314 -4 6 -10 27 -13 48 -3 20
-14 50 -25 65 -11 15 -31 61 -45 102 -36 108 -113 289 -131 309 -9 10 -16 25
-16 34 0 9 -4 18 -9 22 -5 3 -17 29 -27 58 -9 28 -22 57 -29 62 -6 6 -20 30
-30 55 -11 25 -29 61 -42 80 -13 19 -23 42 -23 50 0 9 -7 25 -15 36 -8 10 -24
38 -34 62 -11 23 -25 42 -30 42 -6 0 -11 6 -11 14 0 8 -8 22 -17 32 -9 9 -17
28 -18 43 0 18 -5 26 -17 25 -11 -1 -18 5 -18 17 0 17 -101 194 -142 249 -30
40 -101 152 -123 193 -11 21 -44 68 -74 105 -29 37 -65 85 -80 107 -32 50 -41
59 -64 68 -10 4 -17 15 -15 25 1 10 -17 41 -42 71 -65 77 -112 134 -140 171
-37 49 -172 199 -219 245 -23 21 -41 45 -41 51 0 7 -17 27 -38 46 -21 18 -42
41 -45 51 -4 10 -21 23 -38 29 -22 7 -29 16 -26 28 3 13 0 16 -14 13 -14 -4
-19 0 -19 15 0 11 -8 22 -20 25 -11 3 -23 13 -27 24 -4 10 -36 45 -72 78 -35
33 -104 99 -153 148 -50 48 -95 87 -101 87 -7 1 -21 15 -32 32 -11 17 -36 40
-55 51 -19 10 -48 33 -65 51 -62 65 -250 211 -268 208 -12 -2 -20 4 -24 17 -5
19 -160 141 -178 141 -4 0 -26 16 -49 35 -24 19 -51 35 -61 35 -10 0 -34 17
-54 39 -20 21 -50 45 -67 54 -17 9 -36 23 -43 31 -8 9 -24 16 -37 16 -16 0
-22 4 -18 14 5 14 -92 76 -120 76 -8 0 -27 11 -42 25 -15 14 -53 40 -83 57
-31 17 -74 44 -97 59 -22 15 -56 29 -75 31 -22 2 -34 8 -34 18 0 8 -11 17 -24
18 -14 2 -41 15 -60 28 -20 13 -40 24 -44 24 -5 0 -23 11 -39 25 -19 17 -37
23 -49 20 -12 -4 -19 -2 -19 7 0 16 -113 70 -132 63 -8 -3 -24 6 -36 20 -16
19 -29 24 -43 20 -15 -5 -32 2 -58 23 -20 16 -63 41 -96 56 -33 15 -68 31 -77
37 -10 5 -28 9 -42 9 -13 0 -29 6 -35 14 -6 7 -33 19 -59 26 -26 7 -56 18 -67
25 -11 6 -49 19 -84 29 -36 10 -77 27 -92 38 -20 15 -35 19 -54 14 -21 -5 -31
-2 -42 14 -13 18 -21 20 -55 15 -34 -6 -40 -4 -45 13 -6 23 -38 34 -72 25 -20
-5 -23 -3 -18 11 6 14 3 16 -13 11 -12 -4 -33 1 -53 13 -17 11 -63 27 -102 37
-38 9 -95 22 -125 29 -30 8 -68 19 -84 25 -17 7 -62 16 -102 21 -40 5 -105 21
-145 35 -40 14 -93 25 -119 25 -25 0 -50 4 -56 9 -11 11 -127 33 -173 32 -19
0 -47 7 -62 15 -15 8 -41 14 -57 14 -16 0 -67 7 -113 14 -262 46 -707 76
-1069 74 -140 -1 -277 -3 -305 -5z m740 -128 c83 -8 182 -15 221 -15 39 0 96
-5 125 -11 30 -6 92 -14 139 -19 119 -12 235 -29 301 -46 30 -8 72 -14 92 -14
19 0 48 -5 64 -11 15 -6 63 -14 107 -19 43 -5 83 -14 90 -19 6 -5 31 -11 56
-14 60 -7 182 -37 275 -69 17 -6 50 -14 75 -18 25 -4 59 -12 75 -18 17 -6 57
-18 90 -28 33 -9 75 -23 93 -30 18 -8 43 -14 55 -14 13 0 28 -5 34 -11 6 -6
26 -14 44 -19 19 -5 79 -25 134 -45 55 -20 112 -40 126 -44 14 -5 34 -13 45
-19 10 -6 57 -25 104 -43 87 -32 96 -36 215 -89 148 -67 318 -148 355 -170 8
-5 35 -18 60 -30 25 -12 72 -37 105 -55 33 -19 93 -51 133 -71 40 -21 78 -44
84 -51 6 -7 14 -13 19 -13 5 0 28 -12 52 -27 23 -15 50 -32 59 -38 9 -5 48
-29 85 -53 37 -24 77 -48 88 -55 11 -7 36 -24 56 -39 20 -16 40 -28 43 -28 8
0 63 -38 84 -58 7 -6 23 -17 35 -24 12 -6 71 -48 132 -92 60 -45 122 -90 137
-101 40 -30 313 -251 341 -277 14 -13 64 -59 113 -103 236 -213 397 -377 673
-686 17 -20 64 -76 102 -125 125 -158 134 -168 167 -205 17 -20 32 -40 32 -43
0 -4 20 -34 45 -66 25 -32 45 -61 45 -64 0 -3 19 -32 43 -63 63 -84 235 -344
254 -383 4 -8 45 -80 92 -160 48 -80 110 -192 139 -250 29 -58 57 -112 62
-120 18 -32 160 -329 160 -335 0 -6 6 -21 44 -110 8 -16 21 -50 31 -75 10 -25
23 -58 30 -75 7 -16 21 -50 30 -75 10 -25 23 -57 31 -72 8 -14 14 -33 14 -41
0 -9 5 -28 12 -44 25 -62 70 -190 78 -223 4 -19 13 -48 18 -65 16 -46 57 -192
87 -315 9 -36 22 -87 30 -115 24 -87 36 -139 44 -185 5 -25 13 -65 19 -90 14
-58 32 -151 42 -218 5 -29 13 -74 19 -100 17 -79 33 -192 41 -299 4 -55 11
-106 15 -113 7 -12 21 -267 33 -610 4 -107 4 -258 0 -335 -4 -77 -12 -231 -17
-343 -6 -112 -13 -207 -16 -212 -3 -6 -10 -56 -15 -112 -10 -120 -26 -243 -42
-312 -6 -26 -14 -74 -19 -105 -4 -31 -13 -81 -19 -111 -6 -30 -18 -88 -26
-127 -31 -160 -47 -229 -56 -253 -6 -14 -14 -45 -18 -70 -4 -25 -13 -58 -18
-75 -10 -29 -21 -66 -57 -200 -9 -33 -23 -77 -31 -98 -8 -20 -14 -47 -14 -60
0 -12 -7 -31 -15 -41 -8 -11 -15 -28 -15 -37 0 -10 -6 -30 -14 -46 -15 -30
-33 -80 -46 -128 -13 -46 -31 -94 -62 -163 -15 -34 -28 -66 -28 -71 0 -5 -6
-22 -14 -38 -8 -15 -29 -64 -47 -108 -44 -111 -216 -472 -259 -545 -5 -8 -18
-35 -30 -60 -12 -25 -35 -67 -51 -95 -17 -27 -37 -63 -45 -80 -8 -16 -23 -43
-34 -60 -11 -16 -24 -39 -29 -50 -5 -11 -20 -36 -33 -55 -13 -19 -27 -42 -31
-50 -4 -8 -16 -28 -27 -45 -11 -16 -23 -37 -27 -45 -4 -8 -30 -48 -57 -88 -28
-41 -58 -84 -66 -97 -52 -83 -216 -309 -317 -440 -5 -5 -24 -30 -43 -55 -19
-25 -48 -61 -65 -80 -16 -20 -48 -58 -70 -85 -279 -340 -803 -854 -1095 -1075
-25 -18 -49 -39 -55 -45 -14 -16 -332 -255 -340 -255 -3 0 -43 -28 -90 -62
-46 -35 -119 -85 -162 -112 -43 -27 -104 -67 -136 -88 -32 -21 -60 -38 -62
-38 -2 0 -38 -20 -79 -45 -42 -25 -78 -45 -81 -45 -2 0 -21 -12 -42 -26 -21
-14 -47 -30 -58 -35 -11 -5 -28 -13 -37 -19 -10 -5 -26 -14 -35 -19 -34 -19
-338 -169 -353 -175 -8 -3 -22 -10 -30 -15 -8 -5 -22 -12 -30 -15 -8 -3 -22
-10 -30 -15 -31 -18 -150 -71 -161 -71 -6 0 -23 -6 -37 -14 -15 -8 -47 -22
-72 -31 -25 -9 -57 -23 -72 -31 -14 -8 -35 -14 -45 -14 -11 0 -28 -7 -39 -15
-10 -8 -26 -15 -34 -15 -8 0 -28 -7 -44 -15 -15 -8 -36 -15 -45 -15 -10 0 -26
-7 -37 -15 -10 -8 -28 -15 -39 -15 -11 0 -29 -7 -39 -15 -11 -8 -30 -15 -43
-15 -12 0 -37 -6 -55 -14 -18 -8 -60 -22 -93 -31 -95 -27 -146 -42 -201 -59
-29 -9 -62 -16 -75 -16 -13 -1 -35 -7 -49 -15 -14 -8 -36 -14 -49 -15 -13 0
-44 -6 -70 -14 -68 -21 -182 -46 -210 -46 -13 0 -47 -6 -75 -14 -56 -16 -143
-32 -251 -46 -38 -5 -86 -14 -105 -19 -19 -6 -62 -11 -95 -11 -33 0 -98 -6
-145 -14 -274 -46 -1052 -46 -1440 -1 -69 8 -145 17 -170 19 -87 7 -226 28
-281 42 -30 8 -69 14 -86 14 -17 0 -50 7 -73 15 -23 8 -57 15 -76 15 -18 0
-45 5 -60 10 -15 6 -52 15 -83 20 -31 5 -76 14 -101 20 -151 39 -253 69 -303
86 -20 8 -46 14 -57 14 -11 0 -34 6 -52 14 -50 20 -99 37 -138 46 -34 8 -56
16 -170 61 -30 11 -66 23 -80 26 -14 3 -34 12 -45 19 -11 8 -27 14 -36 14 -10
0 -32 7 -51 16 -73 37 -90 44 -101 44 -6 0 -29 9 -51 19 -23 11 -68 31 -101
46 -33 15 -73 33 -90 40 -16 8 -37 16 -45 19 -8 3 -22 10 -30 15 -8 5 -78 41
-155 78 -145 72 -275 141 -335 178 -19 12 -42 25 -50 28 -8 4 -28 16 -45 27
-16 11 -37 23 -45 27 -45 21 -278 166 -394 245 -71 49 -345 253 -466 348 -90
71 -141 113 -318 268 -209 182 -529 507 -723 732 -40 47 -78 90 -83 96 -6 6
-36 42 -66 79 -30 38 -69 85 -86 104 -44 51 -116 150 -143 194 -12 20 -27 37
-32 37 -5 0 -9 5 -9 11 0 5 -26 45 -58 87 -31 42 -75 104 -97 137 -22 33 -43
62 -47 63 -5 2 -8 8 -8 14 0 6 -12 27 -28 47 -30 40 -47 67 -62 96 -6 11 -19
34 -30 50 -11 17 -24 39 -30 50 -6 11 -19 34 -30 50 -11 17 -24 39 -30 50 -6
11 -19 34 -30 50 -10 17 -31 53 -45 80 -14 28 -39 73 -55 100 -17 28 -51 92
-77 143 -27 51 -58 112 -70 135 -12 23 -22 49 -22 58 -1 9 -8 22 -16 29 -8 7
-15 16 -15 21 0 8 -21 56 -85 194 -12 28 -33 75 -45 105 -12 30 -28 71 -37 90
-28 65 -40 95 -58 140 -9 25 -22 56 -27 70 -6 14 -14 39 -18 55 -5 17 -18 55
-30 85 -12 30 -25 69 -30 85 -5 17 -13 45 -19 62 -35 103 -57 178 -71 233 -4
19 -13 49 -18 65 -29 88 -42 135 -42 155 0 12 -6 36 -14 53 -18 42 -31 104
-90 422 -8 44 -20 107 -26 140 -6 33 -13 78 -16 100 -3 22 -11 87 -19 145 -32
238 -38 293 -46 465 -30 590 -17 1012 46 1465 8 58 16 121 19 140 4 38 21 130
38 200 5 25 14 70 18 100 10 73 29 167 41 207 6 18 14 54 18 80 14 78 77 325
103 398 6 17 13 44 15 60 3 17 10 36 16 43 5 7 13 29 17 50 5 20 18 62 30 92
12 30 25 69 30 85 8 31 22 69 48 140 8 22 20 56 27 75 7 19 27 68 44 109 17
40 31 79 31 85 0 6 13 38 29 71 31 63 85 179 95 205 3 8 10 22 15 30 5 8 24
47 41 85 17 39 35 77 40 85 5 8 34 65 65 125 31 61 65 124 76 140 10 17 22 37
26 45 5 12 102 178 133 230 41 67 98 157 110 175 8 12 48 71 88 131 40 60 77
111 83 112 5 2 9 8 9 13 0 10 204 286 225 304 6 6 27 30 45 55 172 228 686
754 940 961 36 29 72 60 81 68 9 9 47 41 84 71 38 30 85 69 104 86 20 17 52
40 71 52 19 11 44 29 55 39 11 10 55 43 98 73 43 30 105 74 138 98 32 23 62
42 65 42 3 0 23 12 43 28 20 15 45 32 56 39 11 7 51 31 89 55 37 24 76 48 85
53 9 6 34 22 56 36 37 24 88 53 193 110 24 13 72 39 105 58 67 36 362 184 412
206 99 44 174 78 198 90 16 8 34 15 42 15 11 0 68 23 170 70 22 10 49 20 60
23 11 3 65 22 120 42 55 20 109 39 120 42 11 3 34 11 52 19 17 8 38 14 47 14
8 0 30 6 48 14 18 7 60 21 93 30 33 10 74 22 90 28 17 6 50 14 75 18 25 4 59
12 75 18 69 23 207 59 285 73 68 12 148 28 220 45 36 8 79 14 95 14 17 0 46 5
65 11 19 6 67 14 105 19 39 4 102 13 140 19 163 24 239 32 395 42 91 5 199 13
240 18 129 14 612 12 775 -4z"/>
<path d="M8745 16260 c-49 -4 -144 -9 -210 -9 -66 -1 -154 -6 -195 -11 -41 -6
-127 -14 -190 -20 -63 -5 -131 -14 -150 -20 -19 -5 -55 -10 -80 -10 -25 0 -61
-5 -80 -10 -19 -6 -64 -15 -100 -20 -73 -10 -153 -25 -220 -42 -25 -6 -65 -14
-90 -18 -83 -13 -373 -90 -495 -132 -16 -5 -46 -13 -65 -18 -19 -4 -46 -12
-60 -17 -14 -6 -52 -18 -85 -27 -33 -10 -73 -24 -88 -32 -16 -8 -36 -14 -46
-14 -9 0 -26 -7 -37 -15 -10 -8 -27 -15 -36 -15 -10 0 -32 -6 -50 -14 -18 -8
-53 -22 -78 -31 -55 -21 -106 -43 -143 -61 -16 -8 -33 -14 -38 -14 -5 0 -40
-14 -77 -31 -37 -17 -80 -37 -97 -44 -153 -66 -529 -264 -720 -378 -157 -94
-365 -229 -455 -296 -30 -23 -64 -47 -75 -55 -11 -8 -40 -30 -64 -48 -24 -18
-52 -38 -61 -43 -17 -11 -136 -104 -201 -160 -19 -16 -58 -48 -84 -70 -63 -51
-228 -198 -281 -250 -307 -298 -409 -405 -519 -540 -22 -27 -61 -72 -87 -99
-27 -28 -48 -56 -48 -63 0 -7 -6 -16 -12 -20 -17 -11 -150 -177 -224 -280 -32
-45 -79 -110 -104 -144 -25 -34 -47 -67 -50 -73 -6 -13 -40 -67 -119 -186 -31
-47 -59 -92 -64 -100 -4 -8 -16 -28 -27 -45 -11 -16 -23 -37 -27 -45 -7 -15
-85 -151 -103 -180 -5 -8 -46 -89 -91 -180 -45 -91 -85 -172 -90 -180 -5 -8
-12 -22 -15 -30 -3 -8 -20 -44 -37 -80 -29 -62 -38 -83 -72 -165 -8 -19 -21
-50 -29 -68 -7 -17 -21 -52 -31 -77 -9 -25 -23 -57 -31 -72 -8 -14 -14 -35
-14 -45 0 -10 -5 -24 -11 -30 -6 -6 -14 -26 -19 -44 -9 -36 -25 -85 -45 -134
-18 -44 -36 -96 -44 -130 -4 -17 -13 -40 -19 -52 -7 -12 -12 -34 -12 -50 -1
-15 -7 -39 -15 -53 -8 -14 -14 -36 -15 -50 0 -15 -4 -30 -10 -36 -5 -5 -14
-30 -19 -54 -5 -25 -19 -81 -31 -125 -12 -44 -26 -98 -30 -120 -4 -22 -12 -61
-19 -87 -27 -117 -33 -146 -41 -198 -4 -30 -12 -75 -18 -100 -11 -43 -37 -197
-46 -270 -4 -37 -18 -156 -36 -305 -6 -49 -15 -193 -20 -320 -5 -126 -12 -257
-15 -290 -8 -83 13 -567 31 -701 7 -61 14 -140 14 -175 0 -35 7 -91 15 -124 8
-33 14 -80 15 -105 0 -25 7 -72 15 -103 8 -32 15 -73 15 -91 0 -19 7 -53 15
-76 8 -23 15 -57 15 -75 0 -18 6 -55 14 -81 14 -49 32 -131 42 -189 3 -16 11
-52 19 -80 8 -27 21 -79 31 -115 9 -36 23 -87 30 -115 8 -27 21 -75 30 -105 8
-30 20 -68 26 -85 5 -16 13 -43 18 -60 10 -37 28 -90 45 -130 17 -42 35 -94
47 -135 5 -19 14 -39 19 -45 5 -5 9 -17 9 -26 0 -10 6 -30 14 -46 8 -15 22
-48 31 -73 19 -48 27 -68 74 -173 17 -37 31 -73 31 -81 0 -7 7 -19 15 -26 8
-7 15 -19 15 -26 0 -12 47 -114 71 -154 5 -8 12 -22 15 -30 14 -34 107 -219
139 -275 19 -33 44 -80 56 -105 13 -25 34 -61 47 -80 13 -19 28 -44 33 -55 5
-11 15 -29 21 -40 7 -10 24 -37 38 -60 13 -22 30 -49 37 -60 7 -11 16 -27 20
-35 4 -8 26 -43 50 -78 24 -35 43 -66 43 -69 0 -3 13 -22 30 -43 16 -21 30
-41 30 -44 0 -6 110 -160 135 -189 8 -9 15 -20 15 -23 0 -7 90 -125 106 -139
6 -5 33 -39 59 -75 47 -62 180 -224 214 -259 9 -10 41 -46 71 -81 81 -94 87
-101 254 -270 152 -154 348 -340 437 -416 26 -21 82 -68 125 -104 122 -101
126 -104 143 -121 14 -15 199 -152 362 -269 97 -70 200 -140 206 -140 3 0 22
-14 43 -30 21 -17 45 -30 53 -30 9 0 19 -4 22 -10 3 -5 38 -29 76 -52 39 -24
82 -51 97 -60 15 -10 50 -29 77 -43 28 -14 77 -41 110 -60 88 -50 437 -225
448 -225 5 0 46 -17 91 -39 148 -70 172 -81 184 -81 12 0 69 -23 114 -46 14
-8 35 -14 45 -14 10 0 23 -4 29 -9 9 -10 75 -36 129 -51 17 -5 62 -20 100 -33
39 -14 97 -33 130 -42 33 -10 78 -24 100 -30 112 -35 145 -44 200 -58 33 -8
80 -20 105 -27 25 -6 63 -15 85 -19 22 -5 60 -13 85 -19 25 -6 81 -18 125 -27
44 -9 103 -21 130 -27 28 -6 79 -15 115 -18 78 -9 211 -27 300 -41 36 -6 126
-14 200 -19 74 -5 185 -14 245 -19 136 -13 470 -14 630 -1 66 5 172 12 235 15
63 3 156 12 205 20 99 15 219 32 336 45 41 5 88 14 103 20 15 5 42 10 60 10
19 0 53 7 76 15 23 8 54 15 69 15 14 0 46 6 71 14 65 21 129 36 180 45 42 7
78 17 155 43 17 5 46 13 65 18 19 4 46 12 60 17 14 6 50 18 80 26 116 34 195
60 204 69 6 4 19 8 31 8 12 0 30 7 41 15 10 8 28 15 40 15 11 0 29 7 40 15 10
8 27 15 37 15 11 0 31 7 45 15 15 8 55 24 90 36 34 12 65 26 68 30 3 5 11 9
19 9 8 0 57 20 109 45 53 25 99 45 103 45 6 0 127 59 163 79 8 5 40 21 70 35
30 14 91 46 135 70 44 24 116 63 160 86 44 23 93 52 110 64 32 23 61 41 85 53
8 4 42 25 75 48 34 23 68 44 77 47 9 4 54 33 100 64 45 32 103 71 128 88 25
17 50 35 57 41 7 5 62 46 123 90 118 85 301 230 397 312 32 28 78 68 103 89
173 148 503 480 701 705 141 160 184 211 193 228 5 9 14 21 20 26 15 12 286
372 286 379 0 3 27 41 60 85 33 44 60 82 60 85 0 3 19 34 43 69 24 34 46 69
50 77 4 8 16 29 27 45 11 17 24 39 30 50 6 11 19 34 30 50 11 17 23 37 27 45
3 8 18 33 32 55 39 61 50 79 56 93 3 6 7 18 10 25 3 6 28 53 55 102 27 50 72
137 101 195 28 58 55 112 60 120 5 8 14 25 19 38 5 13 21 46 34 75 13 29 52
120 86 202 34 83 68 163 76 178 8 16 14 35 14 42 0 8 6 29 14 47 13 31 24 58
60 156 8 20 23 66 35 102 11 36 24 79 30 95 5 17 17 55 25 85 9 30 23 80 31
110 9 30 22 78 30 105 7 28 21 75 29 106 9 31 16 67 16 82 0 14 5 38 11 54 6
15 15 51 20 78 14 84 30 158 41 195 6 19 15 64 19 100 7 64 15 118 45 291 7
47 14 111 14 142 0 32 7 103 17 160 24 151 24 1128 0 1262 -9 50 -17 122 -17
160 0 39 -7 101 -15 140 -8 38 -15 85 -15 104 0 32 -15 124 -45 276 -8 39 -21
106 -30 150 -9 44 -23 103 -31 131 -7 28 -14 59 -14 70 0 10 -6 39 -14 64 -8
25 -21 71 -30 103 -34 122 -49 173 -62 212 -8 23 -14 48 -14 57 0 10 -6 32
-14 50 -7 18 -21 60 -31 93 -9 33 -23 74 -30 90 -7 17 -16 39 -18 50 -7 24
-34 102 -46 130 -5 11 -16 40 -26 65 -9 25 -23 58 -31 73 -8 16 -14 35 -14 42
0 7 -13 40 -30 73 -16 34 -30 65 -30 70 0 4 -13 35 -30 67 -16 32 -30 63 -30
68 0 13 -178 371 -224 452 -19 33 -45 80 -57 105 -12 25 -34 63 -48 85 -38 60
-49 78 -57 95 -4 8 -15 26 -25 40 -30 44 -154 235 -159 246 -17 36 -417 569
-439 584 -4 3 -33 37 -66 75 -164 197 -491 526 -700 705 -60 52 -112 97 -115
100 -30 31 -272 222 -372 293 -22 15 -45 32 -51 38 -44 37 -461 319 -474 319
-2 0 -36 20 -76 44 -96 58 -189 110 -262 147 -33 17 -73 39 -90 49 -16 11 -41
24 -54 30 -14 6 -77 36 -140 66 -64 31 -129 62 -146 69 -16 7 -60 27 -97 44
-37 17 -72 31 -77 31 -5 0 -22 6 -38 14 -37 19 -88 40 -140 60 -24 9 -61 23
-83 31 -102 38 -161 59 -250 87 -36 11 -78 26 -93 34 -16 8 -39 14 -52 14 -14
0 -39 6 -57 14 -18 8 -60 22 -93 31 -33 9 -73 21 -90 27 -16 5 -41 12 -55 14
-14 3 -47 11 -75 19 -89 24 -139 36 -185 45 -88 16 -166 31 -210 42 -25 6 -72
14 -105 19 -33 4 -76 12 -95 18 -19 6 -53 11 -75 11 -22 0 -72 7 -110 15 -39
8 -97 15 -130 15 -33 0 -78 5 -100 10 -86 21 -835 44 -990 30z m535 -122 c43
0 444 -25 535 -33 22 -2 76 -11 120 -20 146 -28 191 -35 219 -35 15 0 55 -6
89 -14 34 -8 100 -22 147 -31 47 -9 104 -21 127 -26 23 -5 58 -9 77 -9 19 0
38 -4 41 -10 3 -5 23 -10 43 -10 20 -1 48 -7 62 -15 14 -8 35 -14 48 -15 12 0
48 -11 80 -24 31 -13 80 -27 107 -31 28 -4 55 -10 60 -15 6 -4 21 -10 35 -13
14 -3 63 -20 110 -37 52 -19 95 -29 112 -26 15 3 30 1 33 -3 8 -14 113 -71
129 -71 7 0 26 -6 41 -14 15 -8 33 -12 40 -10 6 3 41 -9 77 -26 37 -16 71 -30
77 -30 6 0 11 -4 11 -10 0 -5 7 -10 15 -10 8 0 23 -4 33 -10 54 -31 247 -110
268 -110 13 0 28 -9 34 -20 6 -11 21 -20 34 -20 13 0 31 -9 41 -20 10 -11 26
-20 35 -20 10 0 23 -7 30 -15 7 -8 22 -15 35 -15 12 0 30 -9 41 -21 10 -12 49
-36 86 -55 37 -18 88 -47 114 -64 26 -16 58 -30 71 -30 13 0 26 -6 29 -14 3
-7 26 -26 52 -42 26 -16 56 -35 67 -42 11 -7 39 -22 62 -33 24 -11 57 -33 75
-49 18 -17 41 -33 50 -36 10 -3 18 -10 18 -15 0 -5 9 -9 21 -9 11 0 41 -16 66
-35 25 -19 50 -35 54 -35 5 0 9 -6 9 -14 0 -13 131 -106 150 -106 5 0 14 -9
20 -20 6 -11 17 -20 24 -20 7 0 21 -9 31 -20 10 -11 21 -20 24 -20 4 0 33 -25
65 -55 32 -30 69 -58 82 -61 13 -3 24 -13 24 -20 0 -8 7 -17 16 -21 9 -3 27
-17 40 -29 12 -13 28 -24 34 -24 5 0 10 -6 10 -13 0 -12 54 -57 122 -100 15
-11 28 -25 28 -33 0 -8 9 -14 20 -14 11 0 20 -6 20 -14 0 -7 19 -29 43 -49 23
-19 76 -68 117 -108 41 -40 80 -72 87 -71 6 2 14 -2 18 -8 3 -5 1 -10 -4 -10
-6 0 -11 -5 -11 -11 0 -7 10 -9 25 -5 23 6 25 4 19 -19 -5 -19 -2 -25 11 -25
9 0 25 -5 36 -11 16 -8 18 -13 8 -25 -9 -11 -8 -14 5 -14 9 0 20 -8 23 -17 4
-9 43 -53 88 -97 45 -45 84 -89 88 -98 3 -10 13 -18 22 -18 8 0 15 -9 15 -19
0 -11 15 -32 34 -48 19 -15 50 -52 69 -81 19 -30 45 -60 56 -69 12 -8 21 -20
21 -28 0 -7 9 -17 20 -20 11 -3 20 -12 20 -19 0 -17 77 -120 120 -161 17 -17
43 -54 58 -82 45 -86 146 -232 165 -238 9 -4 17 -14 17 -24 0 -10 9 -26 20
-36 11 -10 20 -26 20 -36 0 -19 18 -46 58 -85 13 -12 22 -28 21 -36 -4 -16 59
-128 72 -128 5 0 9 -8 9 -17 0 -10 18 -47 40 -83 21 -36 51 -90 67 -120 15
-30 35 -63 45 -73 10 -10 18 -26 18 -37 0 -10 5 -22 10 -25 6 -3 10 -15 10
-26 0 -25 47 -119 60 -119 6 0 10 -12 10 -27 0 -16 8 -41 18 -58 10 -16 24
-50 32 -74 8 -24 19 -45 26 -48 7 -2 15 -22 19 -43 4 -21 13 -41 21 -44 9 -3
14 -16 13 -28 -1 -13 6 -41 16 -63 10 -22 31 -76 46 -120 16 -43 35 -88 43
-100 17 -27 37 -81 46 -130 16 -78 31 -130 44 -150 7 -11 16 -40 20 -64 4 -24
13 -53 21 -64 8 -12 15 -33 15 -48 0 -14 4 -39 9 -55 5 -16 19 -67 32 -114 13
-47 30 -90 38 -96 13 -10 13 -15 2 -27 -9 -12 -10 -21 -2 -36 6 -11 11 -30 11
-43 0 -13 7 -34 16 -46 9 -14 14 -34 11 -49 -3 -15 5 -63 18 -107 12 -45 28
-128 35 -186 6 -58 18 -127 26 -154 9 -27 13 -54 10 -61 -2 -7 -1 -42 4 -77
31 -214 44 -479 44 -878 1 -394 -6 -544 -35 -775 -5 -44 -14 -125 -20 -180
-17 -178 -35 -285 -57 -350 -13 -39 -30 -127 -37 -194 -3 -30 -13 -67 -21 -83
-9 -17 -13 -37 -10 -45 4 -9 2 -21 -3 -27 -13 -17 -75 -257 -75 -296 -1 -19
-9 -47 -19 -62 -11 -15 -21 -47 -24 -70 -3 -24 -11 -50 -17 -58 -24 -30 -36
-71 -27 -87 6 -11 0 -30 -21 -62 -16 -25 -27 -54 -24 -63 2 -10 -2 -22 -9 -28
-7 -6 -23 -39 -35 -73 -32 -88 -78 -204 -104 -262 -13 -27 -26 -63 -30 -80 -4
-16 -13 -37 -21 -45 -16 -19 -30 -60 -26 -83 1 -10 -8 -30 -22 -46 -36 -43
-117 -205 -117 -234 0 -14 -5 -29 -11 -33 -6 -3 -20 -27 -31 -53 -10 -25 -26
-50 -34 -54 -20 -11 -47 -66 -40 -83 3 -8 -1 -14 -10 -14 -8 0 -18 -8 -22 -17
-4 -10 -27 -52 -52 -93 -24 -41 -43 -83 -42 -92 2 -9 -6 -21 -16 -27 -11 -6
-27 -29 -36 -52 -15 -37 -64 -111 -99 -149 -8 -8 -22 -30 -31 -48 -9 -18 -39
-66 -66 -106 -28 -40 -50 -75 -50 -77 0 -3 -20 -27 -45 -53 -25 -27 -42 -52
-40 -57 3 -4 -1 -11 -9 -16 -17 -10 -146 -179 -146 -191 0 -5 -7 -15 -15 -22
-8 -7 -15 -20 -15 -30 0 -10 -12 -27 -27 -39 -16 -11 -40 -30 -55 -42 -16 -11
-28 -25 -28 -29 0 -5 -25 -35 -55 -66 -34 -35 -54 -64 -52 -76 1 -14 -9 -26
-31 -38 -47 -26 -72 -50 -72 -71 0 -12 -5 -16 -14 -13 -17 6 -31 -12 -16 -21
20 -12 10 -25 -15 -19 -22 5 -28 2 -38 -25 -6 -17 -17 -31 -23 -31 -6 0 -19
-11 -28 -24 -8 -14 -27 -36 -41 -50 -14 -14 -25 -30 -25 -36 0 -5 -9 -10 -19
-10 -15 0 -18 -5 -13 -22 4 -18 2 -20 -17 -15 -18 4 -21 2 -15 -15 5 -18 3
-20 -15 -15 -15 4 -24 0 -28 -11 -11 -29 -55 -77 -69 -74 -8 2 -10 -5 -7 -19
5 -19 3 -21 -14 -17 -19 5 -50 -22 -103 -91 -3 -3 -24 -19 -47 -34 -23 -15
-49 -40 -58 -57 -9 -16 -22 -30 -30 -30 -8 0 -24 -8 -34 -17 -10 -10 -35 -29
-54 -43 -19 -13 -38 -34 -43 -45 -5 -11 -24 -24 -41 -30 -18 -5 -33 -15 -33
-22 0 -7 -9 -13 -20 -13 -23 0 -39 -26 -33 -51 6 -20 -11 -26 -22 -9 -6 9 -94
-49 -142 -94 -12 -12 -32 -31 -45 -43 -13 -11 -48 -36 -78 -53 -30 -18 -90
-57 -133 -86 -42 -30 -82 -54 -88 -54 -6 0 -9 -7 -5 -15 3 -10 -1 -15 -13 -15
-10 0 -24 -7 -31 -15 -7 -8 -21 -15 -32 -15 -10 0 -21 -7 -24 -15 -4 -8 -12
-15 -20 -15 -7 0 -18 -9 -24 -20 -6 -11 -16 -17 -25 -14 -10 4 -18 -3 -25 -21
-8 -21 -15 -26 -31 -22 -19 5 -77 -25 -161 -84 -15 -10 -32 -19 -38 -19 -5 0
-29 -13 -52 -30 -22 -16 -46 -30 -53 -30 -7 0 -43 -20 -79 -45 -37 -25 -76
-45 -87 -45 -20 0 -93 -42 -104 -60 -3 -5 -15 -10 -27 -10 -11 0 -31 -9 -45
-20 -14 -11 -34 -20 -44 -20 -10 0 -21 -4 -24 -10 -3 -5 -16 -10 -28 -10 -12
0 -28 -9 -35 -20 -7 -11 -23 -20 -36 -20 -31 0 -89 -25 -106 -44 -7 -9 -21
-16 -32 -16 -37 0 -228 -73 -228 -88 0 -9 -7 -11 -20 -7 -12 4 -31 0 -45 -9
-13 -9 -33 -16 -43 -16 -10 0 -27 -7 -38 -15 -10 -8 -31 -15 -46 -15 -15 0
-29 -4 -32 -9 -3 -5 -20 -11 -38 -14 -18 -3 -85 -22 -148 -42 -63 -20 -146
-46 -185 -56 -38 -11 -80 -24 -92 -31 -12 -6 -31 -8 -43 -5 -11 3 -26 0 -33
-7 -16 -15 -113 -39 -127 -31 -6 4 -16 2 -23 -4 -16 -13 -89 -32 -147 -38 -25
-2 -60 -11 -79 -20 -18 -8 -47 -13 -65 -10 -17 3 -65 -2 -106 -10 -79 -15
-151 -23 -440 -48 -405 -36 -636 -39 -960 -15 -85 6 -182 13 -215 15 -33 3
-89 9 -125 14 -36 5 -117 15 -180 21 -63 6 -140 18 -171 26 -30 8 -75 14 -100
14 -24 0 -53 6 -64 14 -19 13 -95 25 -182 30 -23 1 -48 7 -55 13 -7 6 -31 13
-53 17 -22 4 -58 13 -80 21 -22 7 -58 18 -80 24 -171 47 -367 108 -420 130
-26 11 -78 27 -135 41 -25 7 -59 20 -76 31 -17 10 -39 19 -47 19 -9 0 -42 11
-73 25 -31 14 -65 25 -76 25 -22 0 -75 26 -96 46 -7 8 -19 14 -27 14 -12 0
-109 40 -147 61 -10 5 -28 9 -42 9 -13 0 -29 6 -35 14 -7 8 -23 17 -36 20 -14
4 -25 11 -25 16 0 11 -96 60 -117 60 -7 0 -13 4 -13 10 0 5 -16 13 -35 19 -19
5 -55 23 -80 40 -25 17 -52 31 -59 31 -6 0 -16 4 -22 8 -5 5 -28 15 -51 22
-30 9 -43 19 -43 32 0 10 -6 18 -12 18 -7 0 -41 18 -76 40 -34 22 -70 40 -78
40 -9 0 -22 7 -30 15 -9 8 -24 15 -35 15 -12 0 -19 7 -19 19 0 12 -9 21 -25
25 -14 4 -25 11 -25 16 0 6 -8 10 -19 10 -10 0 -24 7 -31 15 -8 10 -21 13 -33
9 -17 -5 -19 -3 -14 15 4 15 0 24 -11 28 -9 3 -59 35 -109 70 -51 34 -100 63
-108 63 -8 0 -15 5 -15 10 0 6 -6 10 -13 10 -6 0 -25 16 -41 35 -16 19 -37 35
-47 35 -10 0 -22 6 -26 14 -9 15 -119 106 -129 106 -4 0 -17 10 -30 22 -36 35
-56 50 -102 81 -23 15 -42 34 -42 41 0 8 -13 19 -29 24 -16 6 -32 20 -36 31
-3 12 -11 21 -16 21 -5 0 -29 20 -55 45 -25 25 -54 45 -64 45 -12 0 -35 23
-61 60 -32 46 -48 60 -63 58 -16 -2 -20 2 -18 17 2 15 -6 24 -28 32 -21 8 -28
16 -24 27 3 9 2 16 -2 16 -5 0 -23 14 -41 30 -18 17 -37 30 -42 30 -6 0 -11 7
-11 15 0 9 -11 21 -25 27 -14 6 -33 27 -42 45 -11 25 -21 33 -37 31 -15 -2
-20 3 -21 18 0 28 -70 104 -95 104 -12 0 -20 7 -20 17 0 16 -64 83 -80 83 -16
0 -52 50 -46 65 4 11 1 15 -12 13 -9 -2 -16 2 -15 9 2 7 -9 25 -23 40 -15 15
-37 44 -50 63 -12 19 -41 55 -63 79 -23 25 -41 48 -41 52 0 6 -57 78 -154 194
-18 22 -40 54 -50 72 -9 18 -25 37 -35 43 -11 5 -31 34 -45 64 -15 32 -33 56
-46 59 -14 4 -20 13 -20 35 0 21 -8 35 -25 46 -14 9 -25 24 -25 34 0 10 -18
39 -40 66 -22 26 -40 56 -40 67 0 10 -6 22 -12 26 -7 4 -24 29 -38 55 -14 26
-52 93 -85 150 -78 133 -92 159 -139 254 -21 44 -45 82 -52 87 -7 4 -16 21
-19 39 -4 17 -18 51 -31 76 -13 25 -24 51 -24 58 0 8 -8 22 -17 32 -27 27 -54
71 -52 85 3 15 -22 67 -31 67 -4 0 -10 20 -12 45 -3 25 -12 52 -19 61 -7 9
-19 30 -25 48 -6 17 -33 87 -58 156 -26 69 -51 133 -56 142 -6 10 -10 26 -10
37 0 10 -6 24 -14 30 -8 7 -18 27 -21 44 -11 54 -47 170 -67 213 -10 23 -24
70 -32 105 -33 145 -73 288 -84 302 -8 9 -10 26 -7 40 4 13 -2 55 -13 93 -11
38 -20 78 -21 89 -2 50 -15 101 -28 117 -9 10 -15 38 -15 75 0 32 -6 83 -13
113 -14 55 -43 294 -67 555 -8 89 -13 297 -13 575 0 430 6 545 41 824 8 65 13
125 10 133 -3 8 -1 24 6 36 17 32 40 177 32 209 -3 17 -1 35 6 43 18 22 47
165 42 206 -2 21 1 40 7 43 6 4 11 20 11 35 0 15 4 31 8 36 5 6 14 37 21 70
17 81 124 455 156 545 7 19 24 71 38 115 28 85 128 348 145 381 31 60 73 165
68 173 -4 5 -2 12 3 15 14 9 111 206 111 226 0 10 4 22 10 25 5 3 19 25 30 48
18 38 37 74 149 280 19 34 44 78 57 97 13 19 24 45 24 58 0 14 7 26 18 29 23
6 62 68 62 98 0 14 9 29 20 35 11 6 20 20 20 31 0 12 8 23 19 26 10 2 23 14
29 26 5 12 42 67 81 121 39 55 71 107 71 116 0 9 17 33 38 52 20 20 63 71 94
114 32 44 79 102 106 131 27 29 55 64 63 79 8 15 27 41 44 59 45 47 98 114
113 141 7 14 18 21 27 18 10 -4 24 9 42 40 16 25 36 48 46 52 11 3 17 14 15
27 -2 16 2 21 14 19 25 -4 80 56 73 79 -6 17 -3 19 22 13 23 -5 26 -4 15 7
-19 21 -14 30 13 23 20 -5 25 -3 25 14 0 11 10 26 23 35 32 21 127 113 127
124 0 4 16 17 35 28 20 10 55 38 78 61 23 24 47 47 52 52 6 6 30 28 54 51 24
23 45 41 47 41 8 0 94 65 94 71 0 4 20 19 44 33 25 14 53 37 63 50 10 13 33
31 50 39 17 9 41 30 53 47 12 16 28 30 36 30 8 0 43 21 78 48 34 26 82 61 106
77 24 17 56 42 71 58 15 15 34 27 42 27 8 0 30 12 50 28 80 61 158 112 171
112 7 0 25 9 39 20 14 11 30 20 36 20 6 0 24 14 41 30 17 17 39 30 48 30 10 0
22 4 27 9 6 5 71 41 145 81 74 40 144 81 155 91 12 10 35 22 52 25 18 3 34 12
37 20 3 7 21 16 41 20 25 4 35 11 31 20 -7 18 12 28 27 16 9 -8 38 2 102 32
50 24 101 47 115 51 14 4 35 16 47 27 14 13 28 18 42 13 14 -4 23 -1 27 9 3 9
18 16 32 16 14 0 35 9 46 19 12 11 44 25 71 32 74 17 187 62 207 81 9 9 25 14
35 12 19 -5 300 81 317 97 6 5 24 9 40 9 30 0 112 23 148 41 10 5 29 9 42 9
14 0 37 5 53 11 32 12 93 26 173 39 63 11 194 37 260 52 25 6 74 14 110 19 36
5 114 15 174 23 59 8 113 19 119 25 5 5 23 7 38 4 30 -6 287 15 303 25 5 3
110 7 234 9 124 2 228 5 230 8 2 2 77 1 166 -2 88 -3 172 -5 186 -5z"/>
<path d="M12625 13184 c-27 -9 -62 -18 -77 -21 -15 -3 -33 -11 -39 -19 -6 -8
-20 -14 -30 -14 -11 0 -27 -4 -37 -10 -38 -21 -89 -39 -122 -43 -19 -3 -80
-21 -135 -42 -55 -20 -131 -46 -170 -57 -38 -10 -77 -25 -85 -32 -8 -8 -34
-16 -58 -20 -48 -7 -122 -37 -122 -48 0 -5 -15 -8 -34 -8 -19 0 -42 -7 -50
-16 -9 -8 -37 -19 -63 -24 -59 -10 -118 -28 -248 -75 -55 -20 -113 -40 -130
-44 -16 -5 -71 -23 -121 -40 -51 -17 -99 -31 -107 -31 -8 0 -20 -6 -26 -14 -6
-7 -29 -16 -51 -20 -25 -4 -40 -12 -40 -20 0 -8 -16 -20 -35 -26 -38 -13 -84
-60 -104 -107 -11 -27 -10 -36 8 -72 12 -22 32 -48 46 -57 13 -8 25 -23 27
-32 3 -17 259 -261 327 -312 32 -25 33 -26 22 -66 -7 -25 -22 -48 -42 -63 -18
-14 -28 -28 -25 -37 3 -9 -2 -17 -12 -21 -22 -8 -102 -94 -102 -110 0 -6 -14
-20 -30 -30 -17 -9 -33 -25 -36 -35 -3 -10 -14 -23 -25 -28 -10 -6 -19 -16
-19 -22 0 -6 -20 -28 -45 -50 -25 -22 -45 -43 -45 -48 0 -5 -12 -22 -27 -38
-43 -44 -83 -95 -83 -104 0 -4 -6 -8 -12 -8 -14 0 -69 -59 -222 -240 -54 -63
-104 -120 -112 -126 -8 -6 -28 -29 -45 -50 -17 -21 -57 -67 -89 -101 -32 -33
-60 -69 -62 -79 -2 -11 -15 -25 -30 -32 -15 -7 -42 -34 -62 -60 -19 -26 -52
-64 -74 -85 -29 -28 -38 -44 -34 -59 4 -18 2 -20 -17 -15 -19 5 -25 -1 -37
-29 -8 -19 -20 -34 -27 -34 -13 0 -143 -148 -153 -174 -3 -9 -12 -16 -18 -16
-18 0 -57 -45 -54 -60 2 -9 -8 -14 -28 -16 -17 -1 -39 -6 -48 -11 -11 -6 -41
-6 -79 -1 -65 10 -207 3 -255 -11 -70 -22 -143 -33 -175 -27 -24 5 -62 30
-122 84 -48 42 -101 85 -117 95 -17 10 -44 32 -62 50 -77 79 -200 183 -232
196 -19 7 -34 18 -34 23 0 6 -20 33 -45 60 -33 37 -45 58 -45 82 0 18 -5 37
-12 44 -9 9 -9 17 0 34 21 43 2 239 -28 299 -5 9 -6 26 -3 38 3 12 -2 33 -13
48 -10 16 -26 49 -35 74 -19 53 -135 209 -155 209 -8 0 -14 6 -14 13 0 35
-192 177 -239 177 -15 0 -42 11 -61 25 -19 14 -47 25 -62 25 -16 0 -47 9 -70
21 -31 16 -51 19 -87 15 -25 -3 -74 -2 -108 2 -45 6 -72 5 -94 -5 -17 -7 -41
-13 -52 -13 -55 0 -206 -62 -301 -124 -75 -49 -216 -178 -216 -198 0 -5 -20
-33 -44 -62 -24 -30 -49 -71 -56 -93 -7 -21 -19 -47 -26 -58 -25 -39 -55 -172
-61 -270 -4 -69 0 -134 11 -208 11 -76 13 -114 6 -127 -6 -11 -10 -23 -9 -27
4 -26 -20 -57 -67 -88 -30 -20 -54 -41 -54 -47 0 -6 -10 -21 -22 -33 -13 -12
-63 -66 -113 -120 -49 -55 -116 -125 -147 -157 -32 -31 -53 -60 -48 -63 17
-10 11 -27 -7 -23 -12 2 -32 -13 -57 -44 -22 -26 -43 -48 -48 -48 -4 0 -8 -6
-8 -13 0 -19 -43 -75 -77 -100 -49 -37 -192 -199 -215 -244 -13 -25 -29 -43
-38 -43 -21 0 -183 -180 -190 -212 -3 -13 -15 -24 -26 -26 -11 -2 -49 -37 -85
-79 -35 -43 -79 -92 -97 -111 -18 -19 -37 -45 -42 -58 -5 -13 -16 -24 -24 -24
-8 0 -21 -9 -29 -20 -7 -11 -41 -49 -75 -85 -34 -36 -62 -70 -62 -76 0 -5 -13
-22 -29 -37 -52 -49 -141 -155 -140 -166 3 -25 -2 -34 -23 -39 -18 -5 -19 -8
-8 -22 11 -13 11 -19 -2 -32 -14 -14 -14 -18 8 -50 12 -19 21 -40 18 -47 -4
-10 83 -102 196 -206 54 -50 112 -94 144 -110 16 -8 35 -25 44 -37 8 -13 21
-23 30 -23 8 0 26 -12 40 -27 l25 -27 8 22 c9 24 28 29 46 11 20 -20 144 83
198 164 9 15 23 27 30 27 6 0 33 26 58 58 25 31 69 81 97 111 38 41 49 59 44
74 -5 16 -3 19 11 14 17 -7 53 25 122 109 17 22 60 69 95 105 127 133 213 232
216 250 2 11 17 26 33 34 16 9 29 22 29 29 0 8 11 21 25 30 33 21 71 63 115
126 19 27 45 54 57 59 13 6 23 16 23 22 0 7 27 38 60 71 33 32 60 65 60 73 0
8 4 15 10 15 15 0 50 33 50 47 0 7 6 13 14 13 10 0 12 7 8 22 -4 18 -2 20 16
16 15 -4 22 -2 22 8 0 18 114 134 132 134 9 1 7 5 -4 14 -26 19 -22 26 12 26
23 0 33 6 40 25 5 14 13 25 18 25 5 0 17 16 28 35 10 19 24 35 30 35 6 0 18
10 27 23 8 12 47 55 86 96 66 68 73 73 94 62 13 -7 73 -13 147 -14 122 -1 161
2 266 25 43 9 56 8 85 -7 32 -17 103 -73 155 -122 13 -12 63 -54 111 -94 49
-41 135 -114 193 -164 58 -51 119 -100 136 -109 17 -10 39 -35 49 -55 11 -20
25 -44 33 -53 12 -14 12 -20 2 -33 -9 -11 -11 -41 -6 -118 11 -162 29 -226
113 -403 8 -17 28 -46 44 -63 16 -18 29 -36 29 -40 0 -5 9 -11 21 -14 13 -3
18 -10 14 -17 -5 -7 24 -41 71 -86 70 -65 80 -72 91 -57 7 9 16 14 19 10 4 -4
2 -13 -5 -21 -10 -11 -5 -18 26 -34 128 -69 192 -93 248 -96 17 -1 35 -4 40
-8 6 -3 47 -12 92 -18 71 -11 98 -10 185 5 57 9 121 26 142 36 22 10 50 19 63
19 13 0 26 7 29 15 4 8 16 15 29 15 12 0 28 7 35 15 7 8 18 15 25 15 34 0 208
161 219 203 4 17 13 27 25 27 31 0 130 180 136 247 2 19 8 40 12 46 5 7 17 44
27 84 14 55 17 93 12 170 -8 130 -11 164 -20 190 -12 36 19 135 52 164 61 55
203 220 197 229 -3 6 3 10 14 10 14 0 21 6 21 20 0 13 10 24 24 30 14 5 43 32
65 59 22 28 57 70 79 93 137 146 249 280 254 303 2 13 11 20 26 19 18 0 22 5
22 27 0 21 4 26 18 23 16 -4 30 12 97 106 11 16 28 31 38 33 9 3 17 15 17 27
0 13 8 24 20 27 11 3 20 9 20 14 0 5 30 39 68 77 91 92 132 139 132 153 0 14
73 89 87 89 6 0 27 20 47 44 20 24 53 62 75 85 23 24 35 43 29 49 -5 5 -2 14
7 22 14 12 18 11 26 -1 8 -10 9 -8 4 9 -5 16 -1 24 12 29 25 9 93 75 93 89 0
7 9 16 20 19 11 3 25 15 30 26 14 25 42 24 68 -3 32 -35 50 -48 66 -48 8 0 17
-9 21 -19 3 -11 18 -27 33 -36 15 -10 37 -30 49 -45 17 -21 29 -27 45 -22 18
4 20 2 15 -17 -6 -25 17 -53 38 -45 19 8 65 -35 58 -53 -5 -13 6 -17 38 -14
11 1 16 -5 15 -16 -1 -23 88 -72 132 -73 26 0 43 10 81 48 57 57 90 137 97
232 3 36 9 90 13 120 5 30 14 87 20 125 6 39 15 81 20 95 5 14 12 52 16 85 3
33 8 78 10 100 2 22 8 65 14 95 5 30 23 143 40 250 17 107 37 236 46 285 8 50
26 173 41 275 14 102 29 210 33 240 18 122 -16 250 -66 250 -16 0 -20 5 -16
20 4 13 0 20 -10 20 -8 0 -27 2 -43 4 -16 3 -51 -2 -79 -10z m134 -83 c12 -8
12 -14 -1 -43 -8 -18 -22 -76 -31 -128 -33 -194 -39 -237 -47 -300 -14 -121
-31 -235 -42 -280 -6 -25 -14 -76 -18 -115 -4 -38 -12 -95 -18 -125 -12 -58
-29 -180 -42 -290 -11 -90 -28 -193 -46 -267 -8 -34 -14 -79 -14 -100 0 -21
-5 -54 -11 -73 -10 -36 -27 -162 -36 -280 -2 -36 -9 -69 -14 -74 -5 -6 -37 17
-82 60 -40 38 -113 106 -162 150 -86 78 -125 111 -230 199 -56 46 -95 87 -95
97 0 22 -41 3 -66 -29 -15 -21 -35 -45 -43 -54 -46 -47 -103 -111 -150 -169
-30 -35 -72 -83 -95 -106 -22 -23 -51 -53 -64 -68 -12 -15 -47 -55 -78 -89
-31 -34 -68 -76 -82 -92 -15 -17 -68 -75 -119 -130 -50 -55 -104 -116 -120
-136 -15 -19 -35 -42 -43 -51 -45 -46 -188 -205 -205 -228 -11 -15 -33 -41
-50 -58 -54 -55 -110 -116 -137 -150 -14 -18 -62 -72 -105 -119 -100 -111
-170 -191 -207 -234 -15 -19 -74 -83 -129 -142 l-100 -109 23 -61 c34 -90 45
-204 33 -334 -6 -59 -16 -124 -23 -143 -46 -126 -74 -174 -159 -274 -88 -104
-175 -164 -314 -218 -141 -55 -390 -46 -542 18 -16 7 -37 15 -45 18 -8 3 -24
12 -35 18 -191 123 -312 281 -363 478 -22 85 -27 281 -8 319 24 45 20 58 -26
91 -23 17 -69 56 -103 88 -34 31 -95 85 -136 119 -41 34 -87 73 -103 87 -16
14 -32 26 -35 26 -3 0 -29 22 -58 48 -28 26 -88 79 -134 117 -46 39 -111 96
-146 129 l-62 59 -48 -23 c-149 -70 -332 -78 -481 -19 -38 15 -47 11 -80 -33
-17 -24 -45 -58 -62 -76 -18 -18 -63 -69 -102 -114 -38 -44 -74 -86 -81 -93
-49 -50 -184 -200 -202 -225 -12 -17 -33 -40 -46 -53 -21 -20 -89 -94 -264
-292 -30 -33 -77 -85 -106 -115 -28 -30 -74 -82 -102 -115 -27 -33 -91 -105
-142 -160 -51 -55 -111 -122 -134 -149 -23 -27 -48 -54 -54 -61 -50 -51 -124
-133 -187 -205 -107 -123 -104 -119 -165 -185 -31 -33 -68 -79 -83 -102 -15
-24 -32 -43 -38 -43 -5 0 -39 28 -75 63 -35 34 -100 94 -143 132 -44 39 -100
89 -125 112 -25 23 -49 43 -52 43 -3 0 -22 13 -42 28 l-35 28 51 50 c44 43
103 107 190 208 10 12 33 37 51 56 17 19 78 87 135 150 57 63 139 153 181 200
42 47 108 121 146 165 38 44 99 111 135 150 36 38 97 106 135 150 38 44 96
109 130 145 55 58 118 129 179 199 11 13 36 40 55 60 19 21 60 66 90 101 30
35 66 75 79 89 12 14 53 60 90 101 36 41 94 104 129 140 70 72 68 62 27 180
-24 69 -26 85 -22 205 4 150 18 209 76 328 67 138 208 275 356 345 158 75 329
101 441 67 27 -8 61 -15 76 -15 15 0 29 -4 33 -9 3 -5 19 -13 36 -16 41 -9 87
-36 179 -104 119 -87 213 -212 253 -336 46 -141 47 -149 47 -279 -1 -95 -5
-138 -15 -156 -28 -50 -20 -64 87 -152 56 -45 125 -103 153 -128 67 -61 179
-157 235 -201 25 -20 74 -63 110 -95 128 -115 191 -169 198 -169 4 0 32 12 62
26 106 50 150 59 283 59 88 0 135 -4 160 -15 63 -26 88 -20 127 32 19 26 53
68 76 93 22 25 67 74 99 110 32 36 93 103 135 150 42 47 135 150 205 230 71
80 146 163 166 185 21 22 46 50 56 61 88 104 112 131 138 158 17 18 45 50 64
71 38 44 169 191 188 210 7 7 43 48 80 92 37 43 84 96 104 118 20 22 75 84
123 138 100 113 175 194 229 247 22 21 37 44 35 52 -1 8 -55 59 -118 112 -129
110 -206 177 -265 231 -22 20 -67 57 -100 82 -33 26 -64 50 -68 54 -17 14 13
49 41 49 25 0 68 12 162 45 19 7 51 18 70 24 19 7 49 16 65 21 17 5 44 13 60
19 84 31 183 63 205 68 14 3 31 10 38 16 7 5 29 13 50 18 20 4 82 24 137 44
55 20 118 41 140 46 22 6 44 14 50 20 5 5 17 9 27 9 9 0 32 6 50 14 50 20 99
37 143 47 22 6 44 14 49 20 6 5 19 9 30 9 12 0 34 7 50 15 15 8 36 15 45 15 9
0 25 6 36 14 11 7 34 16 50 19 35 6 112 33 137 47 10 6 27 10 39 10 11 0 33 6
47 14 15 8 47 21 72 31 25 9 61 25 80 35 40 22 49 23 69 11z"/>
<path d="M6106 7225 c-86 -31 -196 -173 -196 -256 0 -66 28 -137 72 -181 34
-34 39 -43 27 -52 -8 -6 -13 -18 -11 -27 1 -9 -9 -24 -23 -33 -16 -10 -25 -26
-25 -42 0 -30 -39 -154 -48 -154 -10 0 -102 107 -102 119 0 15 -64 61 -84 61
-10 0 -20 9 -23 19 -6 23 -96 73 -173 96 -75 22 -238 30 -328 16 -87 -14 -212
-60 -212 -78 0 -8 -13 -16 -30 -19 -16 -4 -32 -14 -35 -24 -3 -10 -16 -21 -28
-24 -12 -3 -41 -24 -64 -48 -49 -51 -146 -228 -145 -266 0 -15 -6 -47 -14 -71
-11 -33 -12 -47 -3 -57 9 -11 7 -22 -5 -49 -17 -34 -39 -45 -51 -25 -3 6 -16
10 -28 10 -12 0 -31 7 -41 15 -25 19 -55 19 -80 0 -11 -8 -32 -15 -47 -15 -15
0 -29 -6 -32 -13 -3 -7 -39 -28 -81 -45 -62 -26 -89 -32 -150 -32 -85 0 -119
10 -154 46 -17 17 -31 22 -45 18 -17 -5 -19 -3 -15 20 3 15 2 29 -3 32 -5 2
-18 26 -30 52 -36 81 -18 209 43 307 17 27 29 34 44 28 7 -2 23 6 35 18 19 19
36 23 120 27 87 4 101 2 132 -17 19 -11 40 -21 48 -21 7 0 23 -10 36 -21 14
-14 48 -26 95 -35 66 -11 74 -11 88 5 8 9 28 23 45 31 16 8 46 32 67 53 21 20
42 37 48 37 5 0 7 7 3 16 -4 10 0 22 9 28 8 6 23 26 33 44 16 27 18 36 7 53
-7 11 -10 24 -7 29 19 31 -147 210 -195 210 -7 0 -25 9 -40 20 -56 40 -343 99
-382 79 -9 -5 -59 -11 -110 -13 -91 -5 -165 -23 -239 -61 -64 -33 -149 -88
-149 -97 0 -5 -11 -13 -25 -18 -15 -6 -25 -17 -25 -29 0 -11 -11 -23 -30 -31
-16 -7 -42 -28 -57 -48 -30 -39 -73 -120 -73 -138 0 -7 -6 -14 -13 -17 -7 -3
-19 -31 -26 -63 -7 -33 -20 -74 -29 -93 -25 -50 -24 -309 1 -365 9 -21 17 -46
17 -56 0 -10 7 -23 15 -30 8 -7 17 -27 21 -46 3 -18 12 -38 20 -45 8 -6 14
-19 14 -28 0 -10 20 -36 45 -59 25 -23 45 -51 45 -62 0 -13 7 -20 20 -20 13 0
20 -7 20 -18 0 -11 16 -27 40 -41 22 -12 43 -29 48 -37 9 -17 38 -35 92 -59
19 -9 43 -20 52 -25 10 -6 34 -10 53 -10 21 0 43 -8 53 -18 26 -26 156 -46
282 -43 78 1 184 23 207 42 7 6 30 11 52 11 26 -1 45 6 57 19 9 10 23 19 30
19 19 0 138 98 146 121 4 10 15 19 24 19 9 0 22 7 28 16 18 24 59 0 145 -84
57 -57 76 -70 87 -61 16 13 35 3 28 -15 -5 -14 61 -46 96 -46 10 0 22 -4 25
-10 3 -5 31 -10 61 -10 30 0 63 -5 74 -12 15 -10 37 -10 102 0 46 7 99 12 116
12 21 0 35 6 39 16 4 11 14 14 33 11 17 -4 36 0 50 11 13 9 46 28 74 42 28 14
55 35 61 48 5 12 18 22 27 22 17 0 98 92 98 111 0 5 8 9 18 9 10 0 22 4 28 10
17 17 54 0 54 -26 0 -12 -5 -26 -11 -30 -19 -11 -2 -71 32 -119 18 -25 36 -45
40 -45 5 0 16 -9 26 -19 32 -33 100 -41 257 -28 22 1 42 9 44 16 2 7 15 16 28
21 14 6 24 18 24 29 0 14 8 21 28 23 20 2 27 8 27 25 0 38 15 38 50 0 19 -20
39 -37 43 -37 5 0 14 -11 20 -25 7 -14 20 -25 31 -25 10 0 24 -6 30 -14 15
-18 109 -30 126 -16 9 8 15 8 20 0 10 -16 62 -12 69 5 3 8 18 15 33 15 36 0
49 9 62 43 6 15 18 27 26 27 35 0 45 60 45 272 0 220 11 292 51 334 23 25 80
33 108 15 28 -18 41 -121 41 -340 0 -183 2 -212 15 -208 11 5 13 0 9 -22 -5
-22 0 -32 20 -48 14 -12 26 -25 26 -30 0 -17 44 -50 75 -58 64 -15 138 -15
149 1 10 12 20 13 56 5 49 -11 42 -15 142 83 l57 57 66 -46 c36 -25 76 -45 87
-45 12 0 30 -7 40 -17 51 -46 235 -77 413 -69 152 6 212 15 226 32 6 8 24 14
39 14 16 0 30 7 34 15 3 8 15 15 28 15 12 0 38 11 58 25 50 35 159 158 172
195 6 18 16 29 23 26 7 -2 17 0 23 6 15 15 48 -25 64 -77 8 -26 36 -64 80
-109 74 -76 106 -96 149 -96 18 0 32 -6 36 -16 4 -11 13 -14 31 -9 16 4 31 0
42 -10 15 -13 32 -16 77 -12 132 12 206 37 263 90 14 13 33 26 42 30 11 4 15
13 11 26 -3 12 -1 21 6 21 6 0 11 -7 11 -15 0 -8 5 -15 10 -15 6 0 32 -15 58
-34 86 -60 194 -102 228 -89 8 3 22 2 32 -3 49 -21 176 -10 203 19 16 17 23
19 37 10 13 -7 24 -8 36 -1 10 6 34 7 54 3 21 -3 57 -8 82 -10 25 -1 68 -6 97
-10 41 -6 55 -4 68 9 9 9 26 16 38 16 23 0 105 77 126 117 9 17 9 27 -1 42 -9
15 -8 22 7 37 15 15 17 29 11 92 -4 50 -2 80 5 88 19 23 26 16 33 -28 8 -49
61 -168 75 -168 5 0 13 -9 16 -20 9 -29 70 -90 90 -90 9 0 19 -9 22 -20 3 -11
9 -20 14 -20 5 0 34 -12 66 -26 32 -14 67 -29 78 -34 35 -15 93 -21 100 -10 8
13 68 13 81 0 7 -7 23 -3 49 10 27 14 42 17 51 10 14 -12 83 27 84 48 0 7 14
18 30 23 22 8 30 17 30 35 0 14 6 24 14 24 18 0 26 22 26 75 0 25 -6 47 -15
55 -8 7 -17 28 -21 47 -4 19 -13 37 -20 40 -8 3 -14 11 -14 18 0 7 -20 31 -44
53 -33 30 -57 43 -99 52 -79 16 -83 24 -79 152 2 48 7 63 33 93 19 21 40 35
54 35 25 0 105 70 105 92 0 7 9 19 20 26 11 7 20 21 20 31 0 11 5 23 10 26 13
8 13 52 -1 61 -6 3 -8 15 -6 26 7 27 -12 66 -35 74 -13 4 -18 12 -15 25 3 13
-6 28 -29 49 -36 31 -43 34 -81 30 -13 -1 -23 3 -23 9 0 6 -13 17 -30 26 -24
13 -30 22 -30 49 0 25 -12 48 -47 91 -25 31 -58 62 -72 70 -36 18 -148 29
-212 20 -45 -6 -61 -15 -107 -59 -63 -59 -83 -94 -87 -150 -2 -23 -4 -44 -4
-48 -1 -5 -10 -8 -21 -8 -13 0 -20 -7 -20 -20 0 -12 -16 -30 -40 -46 -31 -21
-39 -31 -34 -46 5 -17 2 -19 -14 -14 -11 4 -23 2 -27 -4 -10 -17 -32 -11 -38
9 -3 12 -15 21 -33 23 -21 2 -28 8 -26 20 4 23 -110 80 -203 101 -116 26 -184
29 -296 12 -167 -25 -247 -57 -338 -137 -49 -43 -59 -46 -68 -20 -13 35 -115
120 -160 132 -38 11 -48 20 -78 72 -19 32 -35 63 -35 67 0 4 -24 31 -53 59
-51 47 -58 50 -122 57 -89 10 -177 -6 -221 -40 -19 -14 -34 -32 -34 -40 0 -7
-9 -17 -20 -20 -11 -3 -20 -13 -20 -22 0 -23 -61 -113 -77 -113 -10 0 -13 11
-11 42 3 45 -7 62 -92 146 -55 55 -153 102 -214 102 -27 0 -48 6 -56 15 -17
21 -278 20 -370 -1 -72 -17 -174 -58 -205 -84 -11 -9 -33 -22 -48 -30 -29 -15
-115 -112 -155 -176 -13 -21 -21 -46 -18 -56 2 -11 -5 -35 -16 -54 -15 -25
-18 -43 -13 -72 5 -29 2 -42 -9 -52 -9 -7 -16 -21 -16 -31 0 -11 -5 -19 -10
-19 -14 0 -60 50 -60 65 0 20 -112 126 -127 121 -8 -3 -12 -2 -9 2 9 15 -10
29 -79 58 -66 27 -78 29 -205 28 -112 -1 -145 -4 -194 -22 -70 -26 -92 -27
-139 -7 -42 17 -211 21 -252 5 -14 -6 -51 -35 -80 -66 -58 -59 -88 -67 -109
-29 -6 11 -19 32 -28 47 -23 33 -23 45 0 52 44 14 116 220 83 240 -6 4 -11 15
-11 26 0 10 -7 20 -15 24 -8 3 -15 12 -15 19 0 21 -39 67 -66 77 -13 5 -24 16
-24 24 0 21 -101 56 -158 56 -26 -1 -65 -7 -86 -15z m154 -112 c25 -9 53 -24
64 -32 27 -23 56 -86 56 -121 0 -57 -47 -124 -95 -136 -14 -3 -28 -10 -31 -15
-10 -17 -97 -9 -141 12 -66 32 -93 74 -93 144 0 71 30 117 94 145 52 24 89 24
146 3z m-1980 -132 c108 -14 189 -48 302 -126 98 -68 111 -90 70 -120 -15 -10
-59 -50 -98 -87 -39 -37 -73 -68 -77 -68 -4 0 -26 20 -50 43 -60 61 -191 117
-271 117 -43 0 -141 -26 -193 -51 -52 -25 -131 -104 -163 -162 -39 -72 -58
-203 -41 -285 28 -129 99 -224 211 -283 63 -33 67 -34 185 -34 98 0 126 3 148
18 14 9 32 17 40 17 16 0 117 96 117 110 0 23 31 7 86 -46 32 -30 76 -67 97
-81 20 -14 37 -33 37 -41 0 -28 -188 -182 -222 -182 -5 0 -22 -6 -36 -14 -61
-31 -119 -40 -267 -40 -216 1 -328 36 -461 143 -113 90 -211 243 -229 356 -3
22 -10 67 -16 100 -14 92 18 261 69 360 71 138 162 228 302 299 109 55 294 78
460 57z m4240 -1 c65 -10 132 -28 178 -46 62 -27 102 -47 102 -53 0 -4 -9 -31
-21 -61 -11 -30 -24 -68 -29 -85 -23 -89 -40 -106 -78 -78 -29 20 -77 41 -157
67 -74 24 -269 23 -310 -3 -63 -39 -85 -68 -85 -110 0 -65 66 -116 180 -140
19 -4 45 -13 57 -19 12 -7 35 -12 51 -12 16 0 46 -7 65 -15 20 -8 46 -15 58
-15 12 0 64 -21 115 -46 100 -48 143 -89 180 -169 28 -58 26 -232 -3 -295 -25
-56 -100 -140 -144 -162 -112 -55 -174 -70 -321 -75 -219 -8 -403 41 -543 143
-27 20 -28 23 -12 38 9 10 17 24 17 32 0 8 4 14 8 14 10 0 52 99 52 123 0 28
48 20 106 -18 29 -19 58 -35 66 -35 7 0 22 -7 32 -15 11 -8 31 -15 45 -15 14
0 48 -7 75 -15 98 -30 249 -13 312 34 13 9 30 32 39 52 16 34 16 39 -1 70 -9
19 -24 40 -33 46 -38 30 -176 83 -215 83 -10 0 -39 7 -65 15 -25 8 -75 22
-111 32 -119 32 -220 98 -258 168 -35 63 -52 122 -52 175 1 55 28 152 49 173
6 6 11 16 11 23 0 20 115 120 162 141 63 29 117 46 168 54 64 9 245 9 310 -1z
m700 -71 c47 1 101 3 120 4 l35 2 -3 -134 -3 -134 127 4 127 4 1 -108 c1 -60
-1 -113 -4 -118 -4 -5 -54 -4 -120 1 -66 6 -117 7 -122 2 -5 -5 -8 -111 -6
-235 l3 -226 34 -35 c30 -31 42 -36 79 -36 28 0 57 8 79 21 42 26 63 19 63
-20 0 -16 5 -33 10 -36 6 -3 10 -16 10 -28 0 -12 7 -35 15 -51 32 -61 20 -75
-96 -107 -113 -31 -229 -21 -324 28 -35 18 -105 83 -105 97 0 5 -6 17 -13 25
-7 9 -21 42 -31 74 -14 48 -17 93 -15 288 1 129 -2 234 -7 239 -6 6 -35 6 -73
-1 -46 -7 -66 -7 -71 1 -4 6 -6 59 -6 118 l1 107 80 0 80 0 -4 122 c-2 67 0
126 4 133 4 6 15 8 28 4 12 -4 60 -7 107 -5z m1911 -4 c25 -4 72 -2 104 4 46
9 61 8 67 -1 4 -7 4 -69 1 -137 l-6 -124 124 5 c68 3 129 4 134 2 11 -5 11
-196 0 -215 -5 -8 -44 -10 -129 -8 l-121 4 -2 -213 c-3 -228 0 -245 50 -299
28 -31 106 -32 146 -2 39 28 66 14 73 -39 3 -21 18 -64 33 -96 15 -31 25 -59
24 -60 -34 -29 -165 -65 -241 -65 -70 -1 -170 24 -217 54 -42 26 -98 87 -126
136 -18 31 -19 57 -22 302 -1 147 -5 272 -9 278 -4 6 -26 8 -60 3 -98 -12 -99
-11 -98 107 1 68 5 103 13 109 7 4 43 5 80 2 42 -3 71 0 75 6 3 6 2 61 -4 123
-11 125 -5 144 39 135 14 -3 47 -8 72 -11z m-2231 -145 c0 -19 -11 -26 -23
-14 -8 8 3 34 14 34 5 0 9 -9 9 -20z m-3426 -96 c90 -29 170 -73 218 -120 51
-49 118 -144 118 -166 0 -7 6 -22 14 -33 17 -26 26 -149 17 -250 -27 -300
-357 -501 -681 -415 -41 11 -79 25 -84 30 -6 6 -16 10 -24 10 -34 0 -194 145
-207 188 -3 12 -11 22 -16 22 -5 0 -9 8 -9 18 0 10 -6 26 -13 37 -8 11 -20 61
-27 112 -38 269 98 477 370 567 64 21 257 21 324 0z m1908 -17 c52 -24 86 -48
121 -86 26 -29 47 -58 47 -66 0 -7 7 -18 15 -25 8 -7 15 -21 15 -32 0 -10 6
-32 14 -47 12 -22 15 -94 17 -367 l2 -339 -149 0 -149 0 -1 312 -1 312 -38 49
c-54 71 -120 88 -234 57 -63 -16 -104 -52 -132 -115 -18 -41 -20 -66 -19 -320
0 -151 1 -281 0 -287 0 -10 -37 -12 -150 -10 l-151 2 0 485 c1 267 1 488 1
491 0 10 265 5 272 -5 4 -6 4 -32 1 -58 -7 -59 8 -63 55 -15 17 17 46 39 64
48 93 45 103 48 215 48 106 1 116 -1 185 -32z m3053 17 c81 -27 115 -46 172
-98 58 -52 77 -82 104 -161 16 -43 18 -95 19 -383 1 -184 -2 -337 -6 -341 -5
-3 -65 -4 -134 -1 l-125 5 3 43 c3 53 -19 66 -48 29 -64 -81 -257 -121 -384
-80 -116 37 -169 80 -211 170 -21 43 -25 67 -25 138 0 82 2 89 32 129 45 58
110 116 131 116 10 0 30 6 45 14 24 12 64 18 202 31 19 1 78 -1 130 -6 120
-11 132 -4 104 66 -33 81 -112 124 -229 124 -85 0 -213 -38 -235 -69 -3 -4
-15 -12 -27 -19 -19 -10 -24 -8 -34 11 -37 70 -70 129 -80 146 -15 23 -6 50
18 58 10 3 33 12 50 20 135 60 192 72 348 73 96 1 143 -3 180 -15z m-4100 -6
c3 -3 6 -223 7 -489 l1 -484 -147 0 -147 0 0 480 c1 264 1 485 1 490 0 10 276
13 285 3z m2035 -59 c0 -5 -9 -9 -20 -9 -19 0 -27 20 -13 33 7 8 33 -11 33
-24z m59 8 c8 -10 7 -17 -1 -25 -26 -26 -60 -4 -38 23 15 18 24 19 39 2z m141
-26 c24 -4 35 -12 35 -24 0 -9 4 -17 8 -17 87 -1 96 1 118 25 24 25 59 34 59
15 0 -6 12 -15 28 -21 l27 -11 -22 -18 c-19 -15 -21 -22 -12 -54 5 -20 14 -36
19 -36 6 0 10 -9 10 -20 0 -11 5 -20 10 -20 6 0 10 -5 10 -12 0 -7 -7 -5 -17
4 -26 23 -91 58 -109 58 -8 0 -17 7 -20 15 -4 8 -12 15 -20 15 -7 0 -29 9 -48
19 -24 14 -37 16 -44 9 -13 -13 -42 7 -42 28 0 10 -13 14 -39 14 -42 0 -57 11
-47 37 5 11 13 13 34 8 15 -4 43 -11 62 -14z m1215 -187 c22 -37 29 -43 41
-33 9 7 14 8 14 1 0 -6 -6 -12 -12 -15 -9 -3 -6 -10 9 -23 l23 -19 -64 -68
c-60 -62 -84 -101 -116 -184 -7 -18 -14 -33 -17 -33 -2 0 -23 4 -46 9 -23 6
-55 13 -70 16 -37 7 -57 55 -57 133 0 81 15 122 45 122 13 0 27 5 30 10 3 6
17 10 30 10 14 0 29 9 35 20 6 11 16 20 23 21 7 1 28 18 47 39 19 21 40 38 47
39 6 1 23 -20 38 -45z m-2005 -30 c0 -8 7 -17 15 -20 8 -4 15 -12 15 -18 0 -7
11 -22 25 -34 14 -12 25 -26 25 -32 0 -5 9 -10 21 -10 11 0 23 -8 26 -17 9
-31 68 -72 119 -84 27 -6 67 -19 89 -29 22 -10 50 -21 63 -25 12 -3 22 -13 22
-21 0 -8 9 -14 19 -14 11 0 23 -5 26 -10 10 -16 -25 -25 -46 -12 -10 7 -26 12
-34 12 -9 0 -18 7 -21 15 -4 9 -13 13 -23 10 -9 -3 -33 4 -54 15 -20 11 -48
20 -61 20 -13 0 -29 7 -36 15 -9 11 -16 12 -26 4 -7 -6 -22 -8 -33 -4 -23 7
-71 -20 -71 -41 0 -13 -49 -44 -70 -44 -6 0 -16 13 -21 29 -6 16 -17 32 -25
35 -18 7 -18 32 1 40 8 3 15 17 15 31 0 16 -6 25 -15 25 -18 0 -19 23 -3 50
10 15 10 27 1 51 -11 28 -10 34 15 59 28 28 42 30 42 4z m3100 -109 c0 -8 -4
-17 -10 -20 -6 -4 -10 5 -10 20 0 15 4 24 10 20 6 -3 10 -12 10 -20z m-1929
-8 c-1 -12 -15 -9 -19 4 -3 6 1 10 8 8 6 -3 11 -8 11 -12z m-623 -189 c7 -7
12 -15 12 -19 0 -10 -58 10 -66 22 -8 14 40 11 54 -3z"/>
<path d="M5197 6418 c-85 -46 -144 -163 -134 -267 14 -148 116 -249 253 -250
82 -1 172 48 207 114 23 42 47 121 47 152 0 53 -33 148 -66 189 -51 63 -99 84
-192 83 -58 0 -86 -5 -115 -21z m170 -128 c43 -13 43 -13 60 -108 7 -44 -20
-103 -57 -125 -65 -39 -132 -12 -165 67 -8 19 -19 37 -25 41 -15 9 -12 25 5
25 9 0 15 9 15 24 0 13 7 26 15 30 8 3 15 12 15 20 0 8 9 17 19 21 11 3 22 12
25 20 4 11 11 13 28 6 13 -5 42 -14 65 -21z"/>
<path d="M10295 6100 c-138 -8 -177 -21 -204 -66 -31 -52 -27 -85 15 -127 62
-62 179 -63 270 -1 43 29 54 43 68 85 21 67 20 96 -3 109 -11 5 -23 9 -28 8
-4 -1 -57 -4 -118 -8z"/>
<path d="M13593 7074 c-18 -8 -33 -18 -33 -23 0 -5 -9 -13 -20 -16 -11 -3 -20
-11 -20 -16 0 -6 -11 -25 -25 -43 -14 -18 -25 -40 -25 -48 0 -26 30 -77 49
-83 11 -3 21 -15 24 -25 3 -13 14 -20 29 -20 13 0 30 -6 37 -12 15 -16 25 -16
288 -17 124 0 220 -4 231 -10 19 -10 19 -12 -5 -60 -13 -28 -32 -55 -42 -61
-10 -5 -31 -30 -46 -56 -15 -25 -36 -55 -46 -65 -10 -10 -19 -26 -19 -34 0 -8
-14 -27 -31 -42 -18 -16 -56 -63 -86 -105 -30 -43 -59 -80 -64 -83 -5 -4 -9
-14 -9 -23 0 -9 -12 -28 -25 -41 -14 -13 -25 -29 -25 -36 0 -8 -9 -17 -20 -20
-11 -3 -20 -15 -20 -26 0 -10 -6 -19 -14 -19 -8 0 -25 -14 -38 -31 -13 -17
-33 -42 -46 -56 -13 -14 -21 -32 -18 -39 3 -9 -2 -17 -12 -21 -24 -8 -51 -44
-52 -68 0 -11 -9 -31 -20 -45 -11 -14 -20 -33 -20 -43 0 -9 -5 -26 -12 -36 -9
-16 -6 -27 20 -67 18 -26 32 -51 32 -56 0 -4 7 -8 15 -8 8 0 19 -9 25 -20 7
-14 21 -20 45 -20 18 0 37 -5 41 -11 5 -8 113 -9 398 -3 215 4 412 8 438 8 26
1 53 7 59 14 7 6 20 12 29 12 23 0 100 98 100 126 0 14 -11 36 -25 50 -14 14
-25 29 -25 34 0 16 -69 62 -107 71 -25 5 -49 4 -70 -3 -25 -9 -36 -9 -45 0 -9
9 -69 12 -209 12 -195 0 -229 3 -229 22 0 8 48 77 80 115 5 7 10 19 10 28 0 9
7 18 15 21 8 3 27 31 41 61 16 33 36 58 50 63 13 5 26 21 30 35 3 14 12 25 19
25 16 0 85 88 85 109 0 9 13 30 28 48 88 104 108 128 122 148 26 40 117 156
146 187 11 11 14 26 10 41 -7 29 2 41 21 26 10 -9 13 -7 13 10 0 12 7 33 16
46 28 43 -6 130 -58 148 -10 4 -18 12 -18 19 0 7 -14 21 -31 30 -24 14 -34 15
-49 6 -14 -9 -22 -9 -33 0 -22 18 -811 14 -854 -4z m948 -100 c5 -3 9 -20 9
-38 0 -25 -14 -51 -52 -101 -29 -37 -66 -87 -82 -109 -16 -23 -48 -63 -71 -91
-23 -27 -103 -131 -178 -230 -321 -423 -390 -511 -454 -583 -13 -14 -23 -34
-23 -45 0 -18 5 -19 58 -14 31 4 227 7 435 9 414 2 400 4 395 -57 l-3 -30
-515 0 -515 0 3 40 c2 27 12 50 31 70 16 17 77 95 137 175 59 80 118 156 131
170 13 14 26 33 29 43 3 9 9 17 13 17 4 0 25 26 47 58 21 31 44 62 50 67 6 6
60 75 119 155 60 80 145 189 190 244 44 54 90 111 103 127 12 15 19 29 15 32
-5 2 -190 1 -413 -2 -223 -3 -411 -5 -417 -3 -12 4 -19 92 -9 103 6 6 956 0
967 -7z"/>
<path d="M12271 7054 c-17 -14 -31 -32 -31 -40 0 -8 -7 -14 -15 -14 -8 0 -23
-12 -32 -27 -17 -25 -18 -63 -18 -478 0 -444 0 -451 23 -522 13 -39 30 -74 38
-77 8 -3 14 -13 14 -23 0 -10 14 -31 30 -47 17 -16 30 -37 30 -47 0 -46 194
-184 287 -204 91 -19 282 -23 353 -7 62 14 141 49 153 69 4 7 12 13 17 13 5 0
34 17 64 38 46 31 54 41 49 60 -4 15 -1 22 10 22 8 0 18 -6 21 -12 4 -7 4 -2
2 11 -4 17 2 30 19 43 13 10 27 27 30 38 4 11 12 20 20 20 7 0 15 15 18 33 14
76 20 97 29 97 6 0 8 14 3 36 -4 22 -2 39 4 43 19 12 32 282 28 576 -3 160 -6
291 -6 293 -1 1 -7 2 -15 2 -8 0 -20 16 -26 35 -6 19 -20 37 -31 40 -10 4 -19
11 -19 16 0 6 -16 17 -36 25 -33 14 -40 14 -70 -1 -44 -21 -90 -68 -116 -118
-19 -39 -20 -52 -15 -222 6 -160 -5 -557 -15 -610 -11 -50 -22 -81 -36 -98 -8
-9 -12 -20 -9 -23 3 -4 -1 -20 -9 -36 -11 -21 -21 -28 -33 -25 -10 2 -23 -4
-30 -14 -6 -11 -20 -19 -30 -19 -10 0 -34 -6 -52 -14 -25 -10 -51 -12 -99 -6
-82 10 -104 18 -162 55 -49 32 -83 90 -99 170 -5 22 -11 216 -15 430 -6 409
-11 455 -51 455 -11 0 -24 13 -32 31 -7 17 -21 33 -30 35 -9 3 -24 10 -33 15
-28 14 -44 11 -77 -17z m97 -73 c10 -6 13 -102 15 -462 2 -359 5 -460 16 -484
7 -16 23 -50 34 -75 59 -128 215 -209 382 -197 124 8 195 36 261 102 46 46 67
84 95 169 18 54 19 92 19 501 0 485 -4 455 58 455 57 0 55 13 53 -386 -2 -510
-13 -603 -86 -719 -74 -118 -166 -180 -308 -210 -92 -19 -131 -19 -231 1 -194
39 -302 135 -372 329 -16 45 -18 99 -22 509 -3 374 -1 460 10 467 17 11 59 11
76 0z"/>
<path d="M16966 1441 c-28 -19 -64 -61 -116 -137 -14 -20 -39 -53 -56 -73 -17
-20 -34 -44 -37 -53 -4 -10 -13 -18 -21 -18 -21 0 -85 -43 -86 -57 0 -7 -14
-16 -32 -21 -34 -9 -83 -62 -93 -102 -6 -25 22 -62 81 -110 18 -14 23 -16 52
-19 6 0 12 -10 12 -21 0 -11 7 -20 15 -20 9 0 18 -7 21 -15 4 -8 14 -15 23
-15 17 0 71 -51 71 -68 0 -6 9 -13 19 -17 11 -3 24 -20 30 -37 6 -17 20 -38
31 -45 11 -8 18 -19 14 -25 -9 -15 55 -76 93 -89 43 -14 61 -7 74 31 8 22 17
30 34 30 24 0 35 17 35 52 0 12 8 22 21 25 12 3 22 17 25 33 6 27 65 100 82
100 15 0 77 50 77 63 0 7 12 12 27 13 36 1 57 20 51 44 -4 16 0 20 18 20 16 0
30 10 41 31 18 30 17 31 -7 74 -16 26 -36 45 -50 49 -13 3 -29 15 -35 26 -6
11 -15 20 -21 20 -5 0 -26 16 -46 35 -20 19 -41 35 -47 35 -13 0 -66 54 -66
68 0 5 -9 17 -21 28 -12 10 -32 40 -45 65 -25 50 -97 119 -123 119 -9 0 -29
-9 -45 -19z m72 -61 c14 -105 83 -214 186 -291 64 -48 146 -85 169 -76 17 6
28 -1 45 -30 17 -31 17 -31 -25 -39 -21 -4 -42 -10 -48 -14 -5 -3 -29 -12 -52
-18 -55 -16 -127 -74 -190 -153 -41 -52 -56 -81 -74 -147 -12 -45 -26 -82 -31
-82 -28 0 -46 23 -53 66 -14 93 -95 210 -189 272 -65 43 -135 72 -174 72 -28
0 -38 23 -24 54 8 18 16 22 36 19 41 -8 164 59 230 125 31 31 56 59 56 62 0 4
9 17 20 30 11 13 20 30 20 40 0 9 5 21 10 26 6 6 12 30 14 53 5 47 19 63 51
59 13 -2 21 -12 23 -28z"/>
</g>
</svg>
